<svg xmlns="http://www.w3.org/2000/svg" viewBox="0 0 38 38">
  <path d="M14.319 13.172h5.462l2.465-4.368h5.711l3.661-4.165a1.056 1.056 0 1 0-1.588-1.395l-3.029 3.445h-5.989l-2.466 4.368h-5.462l-2.535 4.499H5.915a1.056 1.056 0 0 0 0 2.114h5.869l2.535-4.498zm16.614 19.712h3.948c.329 0 .599-.27.599-.599V7.689a.6.6 0 0 0-.599-.6h-3.948a.6.6 0 0 0-.599.6v24.595a.6.6 0 0 0 .599.6m-8.105 0h3.949c.329 0 .6-.27.6-.599V12.141a.602.602 0 0 0-.6-.599h-3.949a.6.6 0 0 0-.598.599v20.144a.6.6 0 0 0 .598.599m-8.104 0h3.948c.329 0 .6-.27.6-.599V16.594c0-.329-.27-.6-.6-.6h-3.948c-.329 0-.6.27-.6.6v15.691a.603.603 0 0 0 .6.599m-8.104 0h3.949c.329 0 .599-.27.599-.599V21.047a.6.6 0 0 0-.599-.6H6.62c-.329 0-.6.269-.6.6v11.237c0 .33.27.6.6.6m30.88.963v1.269H.5V3.189h1.269v2.984h1.715v1.269H1.769v6.343h1.715v1.269H1.769v6.343h1.715v1.269H1.769v6.343h1.715v1.269H1.769v3.57H37.5z" fill="#404041"/>
</svg>
