<?xml version="1.0" standalone="no"?>
<!DOCTYPE svg PUBLIC "-//W3C//DTD SVG 20010904//EN"
 "http://www.w3.org/TR/2001/REC-SVG-20010904/DTD/svg10.dtd">
<svg version="1.0" xmlns="http://www.w3.org/2000/svg"
 width="260.000000pt" height="260.000000pt" viewBox="0 0 260.000000 260.000000"
 preserveAspectRatio="xMidYMid meet">
<metadata>
Created by potrace 1.11, written by Peter Selinger 2001-2013
</metadata>
<g transform="translate(0.000000,260.000000) scale(0.100000,-0.100000)"
fill="#000000" stroke="none">
<path d="M1070 2417 c-3 -3 -48 -7 -100 -11 -52 -4 -106 -8 -120 -10 -14 -2
-47 -7 -75 -10 -76 -10 -227 -52 -308 -86 -91 -38 -193 -113 -248 -182 -78
-98 -131 -243 -146 -394 -8 -90 -8 -783 0 -859 22 -199 86 -348 196 -455 122
-119 320 -191 600 -216 222 -20 801 -19 966 1 247 31 443 118 560 247 100 112
133 222 139 476 l3 112 -36 1 c-47 1 -666 1 -708 0 -31 -1 -32 -1 -32 -55 0
-160 -55 -238 -190 -267 -64 -14 -354 -18 -449 -6 -183 23 -258 97 -278 272
-9 78 -9 558 0 655 15 171 94 247 281 268 79 9 324 8 399 -2 79 -10 158 -46
188 -87 36 -48 44 -77 47 -176 l1 -23 386 0 386 0 -5 123 c-4 67 -9 133 -12
147 -3 14 -8 40 -11 59 -16 93 -94 245 -151 291 -126 103 -210 133 -478 175
-45 7 -798 18 -805 12z"/>
</g>
</svg>
