<?xml version="1.0" standalone="no"?>
<!DOCTYPE svg PUBLIC "-//W3C//DTD SVG 1.1//EN" "http://www.w3.org/Graphics/SVG/1.1/DTD/svg11.dtd" >
<svg>
<metadata>
Created by FontForge 20090622 at Fri Oct 12 18:14:43 2018
 By deploy user
</metadata>
<defs>
<font id="MHeiPRC-Bold" horiz-adv-x="1000" vert-adv-y="1000" >
  <font-face 
    font-family="MHeiPRC-Bold"
    font-weight="700"
    font-stretch="normal"
    units-per-em="1000"
    panose-1="2 0 8 3 0 0 0 0 0 0"
    ascent="800"
    descent="-200"
    bbox="-108 -224 1015 919"
    underline-thickness="50"
    underline-position="-100"
  />
<missing-glyph 
 />
    <glyph glyph-name=".notdef" 
 />
    <glyph glyph-name=".null" horiz-adv-x="0" vert-adv-y="0" 
 />
    <glyph glyph-name="nonmarkingreturn" horiz-adv-x="333" 
 />
    <glyph glyph-name="GB1.1" horiz-adv-x="278" 
 />
    <glyph glyph-name="GB1.2" horiz-adv-x="278" 
d="M168 178h-57l-27 379v159h109v-159zM89 0v100h100v-100h-100z" />
    <glyph glyph-name="GB1.3" horiz-adv-x="355" 
d="M285 462h-53l-23 137v117h100v-117zM124 462h-53l-25 137v117h101v-117z" />
    <glyph glyph-name="GB1.4" horiz-adv-x="556" 
d="M537 484l-111 -6l-17 -218l117 7l-5 -64l-117 -6l-14 -189l-66 3l14 182l-148 -8l-13 -177l-66 3l13 170l-109 -6l4 63l110 6l17 218l-114 -6l4 63l115 7l14 167l65 -4l-13 -160l148 9l13 155l65 -4l-12 -147l111 6zM212 466l-17 -218l148 9l17 217z" />
    <glyph glyph-name="GB1.5" horiz-adv-x="556" 
d="M511 204q0 -93 -56.5 -155.5t-148.5 -62.5l-3 -89h-52v89q-95 0 -150.5 58t-62.5 155l88 16q8 -55 24 -86t47 -50q24 -15 54 -20v280q-91 22 -137 59q-61 51 -61 142q0 87 53.5 143.5t141.5 56.5l3 42h52v-42q82 -7 131 -52.5t60 -124.5l-91 -13q-15 100 -100 116v-254
q12 -4 47 -12q50 -14 85 -39q76 -53 76 -157zM251 667q-51 -8 -80.5 -41t-29.5 -81q0 -46 24.5 -73t82.5 -46zM421 198q0 102 -118 128v-267q55 9 86.5 46t31.5 93z" />
    <glyph glyph-name="GB1.6" horiz-adv-x="889" 
d="M829 163q0 -86 -42.5 -138t-112.5 -52q-68 0 -109.5 51.5t-41.5 136.5q0 88 40.5 139.5t110.5 51.5q71 0 113 -51t42 -138zM286 -27h-73l392 755h71zM366 538q0 -86 -42.5 -137.5t-112.5 -51.5q-68 0 -109.5 51.5t-41.5 136.5q0 88 40.5 139.5t110.5 51.5q71 0 113 -51
t42 -139zM753 166q0 126 -77 126q-76 0 -76 -133q0 -125 76 -125q77 0 77 132zM290 542q0 125 -77 125q-76 0 -76 -132q0 -125 76 -125q77 0 77 132z" />
    <glyph glyph-name="GB1.7" horiz-adv-x="667" 
d="M585 -17q-53 35 -110 101q-86 -96 -205 -96q-96 0 -161.5 60.5t-65.5 149.5q0 131 170 213q-44 52 -62 87t-18 70q0 67 52 113.5t126 46.5q71 0 118.5 -44t47.5 -109q0 -103 -135 -174l129 -164q20 42 34 100l91 -19q-24 -96 -64 -155q49 -64 112 -110zM387 573
q0 36 -23 59.5t-58 23.5t-59 -23t-24 -56q0 -32 35 -74l39 -46q52 31 71 55.5t19 60.5zM259 354q-64 -38 -92.5 -74t-28.5 -77q0 -55 40 -96t93 -41q41 0 82.5 24.5t66.5 63.5z" />
    <glyph glyph-name="GB1.8" horiz-adv-x="191" 
d="M122 462h-54l-23 134v120h101v-120z" />
    <glyph glyph-name="GB1.9" horiz-adv-x="333" 
d="M240 -224q-85 99 -134 225.5t-49 258.5t49 258.5t134 225.5l70 -41q-79 -90 -125 -207t-46 -237q0 -119 46 -235.5t125 -206.5z" />
    <glyph glyph-name="GB1.10" horiz-adv-x="333" 
d="M274 260q0 -132 -49 -258.5t-134 -225.5l-70 41q79 90 125 207t46 237q0 119 -46 235.5t-125 206.5l70 41q85 -99 134 -225.5t49 -258.5z" />
    <glyph glyph-name="GB1.11" horiz-adv-x="389" 
d="M356 584q-60 -20 -122 -27q8 -7 9 -8q3 -3 7.5 -8l12 -13l13.5 -15l34 -38l8 -10l-58 -42q-21 28 -61 95l-6 10l-5 -9q-39 -71 -59 -96l-57 42l6 7l35 42q28 33 40 43q-66 13 -120 27l23 70q81 -30 112 -48l-1 11q-8 92 -8 111h70q-2 -69 -9 -110l-2 -11q49 24 115 47z
" />
    <glyph glyph-name="GB1.12" horiz-adv-x="584" 
d="M334 312v-196h-84v196h-194v82h194v195h84v-195h194v-82h-194z" />
    <glyph glyph-name="GB1.13" horiz-adv-x="278" 
d="M187 0q0 -56 -19 -89t-62 -52l-25 37q29 13 41.5 36.5t14.5 67.5h-50v100h100v-100z" />
    <glyph glyph-name="GB1.14" horiz-adv-x="333" 
d="M32 215v88h269v-88h-269z" />
    <glyph glyph-name="GB1.15" horiz-adv-x="278" 
d="M89 0v100h100v-100h-100z" />
    <glyph glyph-name="GB1.16" horiz-adv-x="278" 
d="M71 -12h-71l207 740h71z" />
    <glyph glyph-name="GB1.17" horiz-adv-x="556" 
d="M510 353q0 -365 -233 -365q-144 0 -200 139q-33 83 -33 228q0 364 233 364t233 -366zM420 353q0 133 -26 204q-15 41 -46.5 65t-71.5 24q-73 0 -107.5 -71t-34.5 -221q0 -132 26 -204q15 -42 46.5 -66t70.5 -24t70.5 24t46.5 66q26 70 26 203z" />
    <glyph glyph-name="GB1.18" horiz-adv-x="556" 
d="M287 0v560q-38 -37 -109 -75q-36 -19 -67 -31v85q71 33 126.5 81.5t80.5 98.5h57v-719h-88z" />
    <glyph glyph-name="GB1.19" horiz-adv-x="556" 
d="M29 0q6 50 24 86q39 78 145 165l33 27q99 81 140.5 137t41.5 107q0 54 -38 89t-97 35q-65 0 -102 -38.5t-38 -105.5l-90 10q9 100 68.5 153.5t163.5 53.5q100 0 162 -55t62 -144q0 -64 -41 -126t-135 -141l-72 -61q-75 -64 -103 -108h352v-84h-476z" />
    <glyph glyph-name="GB1.20" horiz-adv-x="556" 
d="M513 212q0 -96 -69 -160t-172 -64q-94 0 -156.5 55t-71.5 146l88 12q9 -42 19 -63q16 -37 48 -57.5t73 -20.5q62 0 104.5 43t42.5 107q0 60 -39.5 99t-100.5 39q-25 0 -62 -9l10 77q7 -1 14 -1q65 0 105.5 33.5t40.5 86.5q0 49 -33 80t-84 31q-53 0 -86.5 -33.5
t-42.5 -95.5l-88 16q16 88 72.5 137t142.5 49q89 0 149 -53.5t60 -132.5q0 -101 -98 -144q40 -11 63 -28q71 -49 71 -149z" />
    <glyph glyph-name="GB1.21" horiz-adv-x="556" 
d="M413 171v-171h-88v171h-310v81l326 464h72v-464h97v-81h-97zM325 575l-224 -323h224v323z" />
    <glyph glyph-name="GB1.22" horiz-adv-x="556" 
d="M518 243q0 -111 -69 -183t-175 -72q-98 0 -160 54t-70 146l92 7q10 -65 46 -100t92 -35q65 0 108 49.5t43 125.5q0 73 -42 117.5t-111 44.5q-88 0 -130 -69l-83 10l70 368h355v-84h-285l-39 -192q65 45 136 45q96 0 159 -66t63 -166z" />
    <glyph glyph-name="GB1.23" horiz-adv-x="556" 
d="M512 233q0 -107 -63 -176t-161 -69q-68 0 -125 34.5t-85 93.5q-38 79 -38 219q0 188 65 286t191 98q85 0 139 -47t65 -131l-88 -8q-15 113 -116 113q-100 0 -139 -98q-30 -77 -30 -165v-14q19 30 42 49q59 46 132 46q91 0 151 -66t60 -165zM422 227q0 71 -38.5 115.5
t-100.5 44.5q-61 0 -101.5 -44t-40.5 -110q0 -73 41.5 -123t103.5 -50q59 0 97.5 47t38.5 120z" />
    <glyph glyph-name="GB1.24" horiz-adv-x="556" 
d="M513 638q-133 -134 -203 -323q-62 -169 -70 -315h-90q3 156 81 345q43 105 111 202q27 39 58 75h-350v84h463v-68z" />
    <glyph glyph-name="GB1.25" horiz-adv-x="556" 
d="M514 205q0 -94 -66.5 -155.5t-168.5 -61.5q-103 0 -169.5 61.5t-66.5 157.5t66 149q26 21 70 32q-38 15 -55 29q-53 42 -53 117q0 81 58 133t148 52q91 0 149.5 -53t58.5 -134q0 -104 -105 -143q42 -15 67 -34q67 -53 67 -150zM395 532q0 49 -33.5 81.5t-83.5 32.5
t-83 -32t-33 -80t33 -80t84 -32q50 0 83 31.5t33 78.5zM424 204q0 63 -41.5 104.5t-105.5 41.5q-62 0 -103 -41t-41 -103q0 -63 41.5 -104.5t105.5 -41.5q63 0 103.5 40.5t40.5 103.5z" />
    <glyph glyph-name="GB1.26" horiz-adv-x="556" 
d="M514 373q0 -176 -54 -270q-66 -115 -202 -115q-86 0 -138.5 46.5t-62.5 131.5l84 7q21 -113 119 -113q41 0 74 20.5t52 57.5q41 80 41 181v18q-28 -43 -74 -68.5t-97 -25.5q-92 0 -152 66t-60 168q0 106 63 174t162 68q112 0 179 -86q35 -44 50.5 -104.5t15.5 -155.5z
M417 474q0 73 -42 122.5t-104 49.5q-60 0 -98.5 -47t-38.5 -119q0 -71 38.5 -115.5t101.5 -44.5q62 0 102.5 43.5t40.5 110.5z" />
    <glyph glyph-name="GB1.27" horiz-adv-x="278" 
d="M89 418v100h100v-100h-100zM89 0v100h100v-100h-100z" />
    <glyph glyph-name="GB1.28" horiz-adv-x="278" 
d="M87 418v100h100v-100h-100zM187 0q0 -56 -19 -89t-62 -52l-25 37q29 13 41.5 36.5t14.5 67.5h-50v100h100v-100z" />
    <glyph glyph-name="GB1.29" horiz-adv-x="584" 
d="M55 313v82l474 200v-87l-376 -154l376 -156v-87z" />
    <glyph glyph-name="GB1.30" horiz-adv-x="584" 
d="M56 421v82h472v-82h-472zM56 204v81h472v-81h-472z" />
    <glyph glyph-name="GB1.31" horiz-adv-x="584" 
d="M55 111v87l376 156l-376 154v87l474 -200v-82z" />
    <glyph glyph-name="GB1.32" horiz-adv-x="556" 
d="M508 533q0 -79 -69 -147l-39 -36q-45 -39 -59.5 -60t-19.5 -53q-3 -19 -4 -61h-84q-1 12 -1 27q0 69 27 114q21 37 87 94q42 38 57 61.5t15 54.5q0 53 -41 91t-98 38q-120 0 -143 -145l-90 10q13 100 72.5 153.5t159.5 53.5t165 -55t65 -140zM227 0v100h100v-100h-100z
" />
    <glyph glyph-name="GB1.33" horiz-adv-x="1015" 
d="M982 9q-32 -65 -107 -121q-128 -98 -324 -98q-231 0 -362.5 117t-131.5 322q0 133 59.5 250t159.5 180q110 70 265 70q181 0 299 -107.5t118 -273.5q0 -135 -90.5 -242.5t-203.5 -107.5q-48 0 -69 18t-25 64q-70 -81 -150 -81q-75 0 -126 63t-51 156q0 119 78 215t175 96
q93 0 148 -90l16 76h88l-71 -328l-7 -34q-7 -31 -7 -41q0 -14 10 -23.5t24 -9.5q39 0 94 51q44 42 69 100t25 120q0 132 -99.5 220t-249.5 88q-176 0 -291.5 -119.5t-115.5 -301.5q0 -178 111 -276.5t310 -98.5q153 0 257 67q34 21 50 36t36 44h89zM616 317q0 63 -31 101.5
t-82 38.5q-66 0 -118 -75.5t-52 -171.5q0 -60 30 -99.5t75 -39.5q68 0 123 76t55 170z" />
    <glyph glyph-name="GB1.34" horiz-adv-x="667" 
d="M561 0l-84 217h-299l-79 -217h-100l275 716h102l292 -716h-107zM373 492q-33 87 -49 149q-19 -79 -40 -137l-79 -210h243z" />
    <glyph glyph-name="GB1.35" horiz-adv-x="667" 
d="M614 206q0 -60 -31 -109.5t-82 -71.5q-60 -26 -155 -26h-273l1 717h268q75 0 121.5 -17.5t78.5 -57.5q37 -48 37 -108q0 -103 -99 -152q65 -20 99.5 -65t34.5 -110zM486 521q0 37 -17.5 64t-46.5 36q-36 10 -111 10h-143v-216h155q48 0 67.5 2.5t40.5 12.5q55 24 55 91z
M516 207q0 37 -18 66t-50 42q-39 16 -114 16h-166v-247h178q48 0 66.5 3t42.5 15q28 13 44.5 41.5t16.5 63.5z" />
    <glyph glyph-name="GB1.36" horiz-adv-x="722" 
d="M684 227q-30 -116 -106.5 -177.5t-189.5 -61.5q-216 0 -294 173q-43 95 -43 202q0 166 92 265.5t246 99.5q107 0 180.5 -54t102.5 -155l-93 -22q-26 77 -72 113.5t-120 36.5q-112 0 -175 -74.5t-63 -208.5q0 -140 60.5 -217.5t170.5 -77.5q83 0 136.5 46.5t72.5 135.5z
" />
    <glyph glyph-name="GB1.37" horiz-adv-x="722" 
d="M670 363q0 -116 -40 -202t-113 -125q-71 -37 -180 -37h-258v717h246q75 0 108 -5t73 -23q43 -19 78 -59q86 -101 86 -266zM573 364q0 120 -49 191q-23 34 -61 54q-26 14 -53 18t-86 4h-151v-547h153q97 0 144 27q103 61 103 253z" />
    <glyph glyph-name="GB1.38" horiz-adv-x="667" 
d="M79 0v716h518v-85h-423v-219h396v-84h-396v-244h440v-84h-535z" />
    <glyph glyph-name="GB1.39" horiz-adv-x="611" 
d="M175 631v-222h336v-84h-336v-325h-95v716h483v-85h-388z" />
    <glyph glyph-name="GB1.40" horiz-adv-x="778" 
d="M714 100q-140 -112 -297 -112q-165 0 -265 100.5t-100 266.5q0 110 45.5 198.5t123.5 130.5q82 44 189 44q93 0 161.5 -34t102.5 -98q17 -34 29 -80l-86 -24q-12 44 -24 64q-25 43 -72.5 67t-109.5 24q-123 0 -192.5 -76t-69.5 -210q0 -136 69.5 -212t194.5 -76
q73 0 155 41q38 20 53 33v134h-210v84h303v-265z" />
    <glyph glyph-name="GB1.41" horiz-adv-x="722" 
d="M547 0v337h-372v-337h-95v716h95v-294h372v294h95v-716h-95z" />
    <glyph glyph-name="GB1.42" horiz-adv-x="278" 
d="M92 0v716h95v-716h-95z" />
    <glyph glyph-name="GB1.43" horiz-adv-x="500" 
d="M420 228q0 -90 -22 -141q-21 -47 -68 -73t-111 -26q-164 0 -189 159q-3 24 -3 46v10l85 12q3 -70 24 -103q26 -40 83 -40q33 0 58 14.5t36 39.5q13 31 13 97v493h94v-488z" />
    <glyph glyph-name="GB1.44" horiz-adv-x="667" 
d="M540 0l-254 362l-118 -114v-248h-94v716h94v-355l356 355h128l-300 -290l313 -426h-125z" />
    <glyph glyph-name="GB1.45" horiz-adv-x="556" 
d="M75 0v716h95v-632h353v-84h-448z" />
    <glyph glyph-name="GB1.46" horiz-adv-x="833" 
d="M661 0l14 566l1 43l1 16l-7 -20l-24 -67l-188 -538h-85l-213 627l-1 -19l1 -80l11 -528h-97v716h139l173 -513q28 -87 33 -106l40 115l175 504h123v-716h-96z" />
    <glyph glyph-name="GB1.47" horiz-adv-x="722" 
d="M545 0l-360 537q-14 19 -28 50l-1 -17q5 -77 5 -81l8 -489h-91v716h97l310 -464q59 -88 83 -141q-13 97 -13 174l-4 431h91v-716h-97z" />
    <glyph glyph-name="GB1.48" horiz-adv-x="778" 
d="M732 357q0 -164 -95.5 -266.5t-247.5 -102.5q-151 0 -246.5 102.5t-95.5 265.5q0 167 94 269.5t248 102.5q153 0 248 -102.5t95 -268.5zM634 357q0 132 -66.5 211t-176.5 79q-115 0 -180.5 -77.5t-65.5 -213.5q0 -131 66 -209t178 -78t178.5 78t66.5 210z" />
    <glyph glyph-name="GB1.49" horiz-adv-x="667" 
d="M623 507q0 -64 -30 -115t-82 -74q-58 -27 -156 -27h-183v-291h-95v716h270q65 0 93.5 -3.5t62.5 -15.5q55 -19 87.5 -70.5t32.5 -119.5zM526 505q0 35 -15 64q-19 38 -49 50t-107 12h-183v-256h185q68 0 108 20q61 31 61 110z" />
    <glyph glyph-name="GB1.50" horiz-adv-x="778" 
d="M712 -56q-46 17 -148 84l-6 4q-49 -28 -82 -36t-93 -8q-151 0 -246 103t-95 267q0 165 94.5 267.5t247.5 102.5q152 0 247 -102t95 -267q0 -179 -108 -282q63 -44 122 -67zM628 359q0 131 -66 209.5t-177 78.5q-114 0 -180 -77.5t-66 -211.5q0 -133 66.5 -211t179.5 -78
q51 0 96 19q-46 30 -94 41l23 69q80 -22 135 -69q83 77 83 230z" />
    <glyph glyph-name="GB1.51" horiz-adv-x="722" 
d="M592 0l-95 149q-44 69 -73 105q-26 32 -53 47q-19 11 -33.5 14t-52.5 3h-110v-318h-95v716h317q95 0 144 -19q50 -19 81 -67t31 -109q0 -82 -51.5 -131.5t-150.5 -62.5q41 -21 62 -42q39 -36 73 -90l125 -195h-119zM555 520q0 30 -15 57t-40 40q-37 20 -99 20h-226v-237
h204q74 0 114 18q28 14 45 41.5t17 60.5z" />
    <glyph glyph-name="GB1.52" horiz-adv-x="667" 
d="M615 202q0 -94 -74.5 -154t-190.5 -60q-142 0 -222 63.5t-83 178.5l90 8q5 -47 19 -73q23 -43 74.5 -67.5t117.5 -24.5q80 0 128.5 33.5t48.5 88.5q0 60 -54 87q-39 21 -162 50q-71 17 -105 30t-63 35q-66 49 -66 134q0 88 69 142.5t182 54.5q122 0 193.5 -57t75.5 -157
l-91 -7q-7 70 -49.5 103.5t-124.5 33.5q-77 0 -120.5 -28.5t-43.5 -78.5q0 -45 34.5 -68.5t135.5 -45.5q84 -19 120.5 -31t69.5 -31q91 -53 91 -159z" />
    <glyph glyph-name="GB1.53" horiz-adv-x="611" 
d="M352 631v-631h-95v631h-235v85h567v-85h-237z" />
    <glyph glyph-name="GB1.54" horiz-adv-x="722" 
d="M643 302q0 -72 -6.5 -111.5t-25.5 -76.5q-31 -61 -94 -93.5t-151 -32.5q-197 0 -255 126q-18 40 -24.5 79t-6.5 109v414h95v-413q0 -94 19 -142q17 -41 60 -64.5t103 -23.5q139 0 173 88q18 46 18 142v413h95v-414z" />
    <glyph glyph-name="GB1.55" horiz-adv-x="667" 
d="M379 0h-97l-277 716h102l186 -520l15 -39q12 -30 17 -56l5 -22q25 80 39 117l194 520h96z" />
    <glyph glyph-name="GB1.56" horiz-adv-x="944" 
d="M734 0h-91l-151 545l-15 53l-6 32l-22 -85l-152 -545h-96l-191 716h97l110 -470q24 -100 27 -128l2 -18l6 22l14 62l13 49l136 483h115l102 -362q40 -141 55 -254q15 72 36 156l113 460h95z" />
    <glyph glyph-name="GB1.57" horiz-adv-x="667" 
d="M544 0l-180 255q-16 22 -32 48l-5 -9l-29 -45l-179 -249h-114l277 373l-245 343h113l130 -184q39 -55 57 -88l4.5 6.5t4 6t2.5 3.5q3 7 19 28l13 18.5l9.5 13.5t4.5 6l144 190h103l-251 -337l271 -379h-117z" />
    <glyph glyph-name="GB1.58" horiz-adv-x="667" 
d="M374 303v-303h-95v303l-276 413h115l141 -216q50 -76 66 -107l7 -14q27 48 78 126l139 211h110z" />
    <glyph glyph-name="GB1.59" horiz-adv-x="611" 
d="M18 0v88l367 458q44 55 74 85h-399v85h512v-85l-401 -496q-1 -1 -4.5 -5l-11.5 -13.5l-16 -18.5q-2 -2 -12 -14h457v-84h-566z" />
    <glyph glyph-name="GB1.60" horiz-adv-x="278" 
d="M66 -199v915h194v-73h-106v-769h106v-73h-194z" />
    <glyph glyph-name="GB1.61" horiz-adv-x="278" 
d="M207 -12l-207 740h71l207 -740h-71z" />
    <glyph glyph-name="GB1.62" horiz-adv-x="278" 
d="M18 -199v73h106v769h-106v73h194v-915h-194z" />
    <glyph glyph-name="GB1.63" horiz-adv-x="469" 
d="M354 337l-120 292l-118 -292h-90l173 391h71l173 -391h-89z" />
    <glyph glyph-name="GB1.64" horiz-adv-x="556" 
d="M-13 -199v64h582v-64h-582z" />
    <glyph glyph-name="GB1.65" horiz-adv-x="333" 
d="M156 583l-113 137h118l66 -137h-71z" />
    <glyph glyph-name="GB1.66" horiz-adv-x="556" 
d="M424 0q-14 28 -18 64q-89 -76 -191 -76q-81 0 -129 40.5t-48 108.5q0 53 32.5 92.5t91.5 55.5q32 9 80 14q103 12 157 30v23q0 56 -29.5 81t-95.5 25q-62 0 -91.5 -21.5t-43.5 -77.5l-86 11q10 44 23 67q54 93 210 93q157 0 189 -87q13 -33 13 -108v-118q0 -129 7 -164
q6 -26 21 -53h-92zM399 260q-47 -19 -144 -33q-69 -10 -96 -29t-27 -59q0 -38 28 -60t77 -22q78 0 124 49q22 22 30 48.5t8 73.5v32z" />
    <glyph glyph-name="GB1.67" horiz-adv-x="556" 
d="M517 267q0 -124 -62 -201.5t-162 -77.5q-93 0 -142 77l-2 -65h-82v716h88v-256q55 70 142 70q99 0 159.5 -72.5t60.5 -190.5zM427 260q0 92 -37 145t-101 53t-102.5 -52t-38.5 -143v-14q0 -87 37 -137.5t101 -50.5t102.5 54t38.5 145z" />
    <glyph glyph-name="GB1.68" horiz-adv-x="500" 
d="M491 179q-14 -89 -71.5 -140t-144.5 -51q-110 0 -173 72t-63 198q0 127 63 199.5t174 72.5q56 0 102 -21.5t72 -59.5q22 -31 32 -83l-85 -13q-24 105 -118 105q-72 0 -111 -51.5t-39 -146.5q0 -96 37.5 -147.5t107.5 -51.5q38 0 68.5 18.5t45.5 49.5q12 26 16 61z" />
    <glyph glyph-name="GB1.69" horiz-adv-x="556" 
d="M404 0v66q-49 -78 -145 -78q-98 0 -160.5 76.5t-62.5 194.5q0 124 60 197.5t160 73.5q92 0 140 -71l2 257h88v-716h-82zM406 251q0 97 -37.5 152t-104.5 55q-65 0 -101.5 -53t-36.5 -147q0 -90 38.5 -143.5t103.5 -53.5q64 0 101 51t37 139z" />
    <glyph glyph-name="GB1.70" horiz-adv-x="556" 
d="M517 260q0 -2 -0.5 -9.5t-0.5 -13.5h-387q4 -82 46.5 -129t110.5 -47q99 0 137 106l90 -11q-22 -82 -80 -125t-147 -43q-116 0 -182 71t-66 196q0 126 65.5 200.5t177.5 74.5q108 0 172 -73t64 -197zM424 309q-4 42 -14 66q-15 37 -50.5 60t-78.5 23q-61 0 -101.5 -41.5
t-45.5 -107.5h290z" />
    <glyph glyph-name="GB1.71" horiz-adv-x="278" 
d="M298 642q-25 5 -52 5q-42 0 -57.5 -17t-15.5 -63v-49h101v-68h-101v-450h-88v450h-77v68h77v56q0 63 17 94q34 60 127 60q34 0 82 -9z" />
    <glyph glyph-name="GB1.72" horiz-adv-x="556" 
d="M491 70q0 -88 -13 -137.5t-45 -80.5q-65 -62 -176 -62q-95 0 -150.5 42t-55.5 114q0 7 1 11l85 -13q12 -82 119 -82q92 0 124 55q13 23 17.5 48t4.5 77v26q-58 -68 -144 -68q-99 0 -161.5 73t-62.5 189q0 121 61.5 194.5t163.5 73.5q93 0 149 -74l2 62h81v-448zM409 266
q0 88 -39 140t-105 52q-65 0 -103 -52.5t-38 -142.5q0 -89 38 -139.5t105 -50.5q42 0 75 24q35 25 51 64.5t16 104.5z" />
    <glyph glyph-name="GB1.73" horiz-adv-x="556" 
d="M402 0v328q0 61 -21 88q-30 38 -89 38q-35 0 -67 -17t-48 -45q-22 -37 -22 -108v-284h-87v716h87v-257q62 71 157 71q51 0 93 -19.5t61 -53.5q24 -41 24 -129v-328h-88z" />
    <glyph glyph-name="GB1.74" horiz-adv-x="222" 
d="M68 615v101h88v-101h-88zM68 0v518h88v-518h-88z" />
    <glyph glyph-name="GB1.75" horiz-adv-x="222" 
d="M67 614v102h88v-102h-88zM155 -28q0 -78 -15 -115.5t-52 -54.5q-27 -12 -63 -12t-69 9l17 75q22 -7 41 -7q26 0 37.5 15t13.5 50l2 42v544h88v-546z" />
    <glyph glyph-name="GB1.76" horiz-adv-x="500" 
d="M388 0l-172 265l-62 -59v-206h-88v716h88v-408l208 210h114l-198 -192l218 -326h-108z" />
    <glyph glyph-name="GB1.77" horiz-adv-x="222" 
d="M66 0v716h87v-716h-87z" />
    <glyph glyph-name="GB1.78" horiz-adv-x="833" 
d="M681 0v327q0 69 -21.5 98t-71.5 29q-69 0 -104 -54q-23 -34 -23 -99v-301h-87v337q0 61 -22.5 89t-70.5 28q-34 0 -63 -16.5t-43 -43.5q-22 -43 -22 -125v-269h-87v518h78v-72q56 84 157 84q115 0 147 -91q61 91 161 91q47 0 84.5 -19.5t55.5 -53.5q19 -38 19 -101v-356
h-87z" />
    <glyph glyph-name="GB1.79" horiz-adv-x="556" 
d="M402 0v315q0 42 -4 61t-16 37q-27 41 -89 41q-38 0 -71 -18t-48 -47q-18 -36 -18 -106v-283h-88v518h79v-73q58 85 166 85q52 0 93.5 -20.5t60.5 -55.5q15 -27 19 -50.5t4 -84.5v-319h-88z" />
    <glyph glyph-name="GB1.80" horiz-adv-x="556" 
d="M521 267q0 -91 -26 -148.5t-82 -92.5q-62 -38 -135 -38q-79 0 -141 41.5t-84 109.5q-18 55 -18 120q0 167 108 234q62 37 135 37q111 0 177 -71.5t66 -191.5zM431 262q0 90 -41.5 143t-111.5 53q-71 0 -112 -53t-41 -146q0 -92 41 -145t112 -53q72 0 112.5 53t40.5 148z
" />
    <glyph glyph-name="GB1.81" horiz-adv-x="556" 
d="M518 263q0 -121 -63 -198t-163 -77q-85 0 -134 66l-2 -253h-88v717h80v-67q56 79 150 79q100 0 160 -73t60 -194zM428 264q0 91 -37 144t-101 53q-65 0 -104 -58t-39 -153q0 -87 37.5 -138t101.5 -51q66 0 104 54.5t38 148.5z" />
    <glyph glyph-name="GB1.82" horiz-adv-x="556" 
d="M399 -199v254q-23 -31 -59.5 -49t-77.5 -18q-99 0 -162 77.5t-63 198.5t60 193.5t159 72.5q97 0 149 -81l2 69h79v-717h-87zM407 252q0 94 -39 151.5t-104 57.5q-64 0 -100.5 -54t-36.5 -149q0 -90 39 -143.5t104 -53.5q63 0 100 51.5t37 139.5z" />
    <glyph glyph-name="GB1.83" horiz-adv-x="333" 
d="M316 421q-32 19 -65 19q-48 0 -73.5 -43.5t-25.5 -124.5v-272h-87v518h79v-78q28 51 52.5 70.5t59.5 19.5q44 0 90 -28z" />
    <glyph glyph-name="GB1.84" horiz-adv-x="500" 
d="M462 152q0 -72 -58.5 -118t-150.5 -46q-99 0 -153 40.5t-69 126.5l87 13q15 -108 134 -108q54 0 86.5 22.5t32.5 60.5q0 27 -19 42.5t-68 27.5l-58 14q-78 19 -119 43q-28 16 -45 46t-17 65q0 67 52.5 108t138.5 41q146 0 189 -86q11 -22 17 -59l-86 -12q-12 85 -114 85
q-53 0 -82.5 -18t-29.5 -49q0 -29 20.5 -42t101.5 -34q89 -24 129 -41q81 -34 81 -122z" />
    <glyph glyph-name="GB1.85" horiz-adv-x="278" 
d="M269 1q-37 -8 -67 -8q-90 0 -112 57q-10 27 -10 102v298h-64v68h64v129l88 53v-182h88v-68h-88v-303q0 -44 9.5 -58t40.5 -14q15 0 38 4z" />
    <glyph glyph-name="GB1.86" horiz-adv-x="556" 
d="M408 0v76q-61 -88 -166 -88q-50 0 -91.5 21t-60.5 55q-16 28 -20 51t-4 82v321h88v-287q0 -78 8 -103q9 -29 36 -46.5t64 -17.5q38 0 71.5 19t47.5 50q18 37 18 108v277h87v-518h-78z" />
    <glyph glyph-name="GB1.87" horiz-adv-x="500" 
d="M292 0h-82l-197 518h93l111 -310q19 -52 32 -105q12 41 34 99l115 316h90z" />
    <glyph glyph-name="GB1.88" horiz-adv-x="722" 
d="M554 0h-91l-83 311l-17 76l-2 12l-106 -399h-92l-158 518h91l82 -299l8 -31l15 -53l7 -27l7 27l11 40l10 40l82 303h91l77 -300q6 -25 10 -37q7 -27 15 -62l18 58q1 3 13 42l89 299h85z" />
    <glyph glyph-name="GB1.89" horiz-adv-x="500" 
d="M385 0l-106 161l-18 27l-11 17l-136 -205h-107l190 270l-175 248h109l80 -121q25 -39 36 -58q13 20 40 57l87 122h105l-179 -243l193 -275h-108z" />
    <glyph glyph-name="GB1.90" horiz-adv-x="500" 
d="M294 -9l-18 -49q-30 -82 -66.5 -117t-90.5 -35q-27 0 -57 10l-9 83q29 -8 50 -8q42 0 60.5 18.5t41.5 84.5q4 8 8 21l-197 519h95l108 -300q23 -63 37 -120q16 62 37 119l110 301h89z" />
    <glyph glyph-name="GB1.91" horiz-adv-x="500" 
d="M20 0v71l330 379q-66 -3 -99 -3h-212v71h424v-57l-281 -329q-4 -6 -43 -48q-1 -1 -2.5 -3t-4 -5t-4.5 -5q7 1 16 1t18 1t14 1.5t6 0.5h13h44h240v-75h-459z" />
    <glyph glyph-name="GB1.92" horiz-adv-x="334" 
d="M284 -210q-50 0 -76.5 9.5t-44.5 34.5q-22 28 -27.5 62t-6.5 134q0 91 -10.5 125.5t-43.5 52.5q-19 11 -47 11v80q30 0 47 10q33 18 43.5 53t10.5 126q1 100 6.5 134t27.5 62q19 25 45 34.5t76 9.5h27v-76h-15q-52 0 -68 -19t-16 -82v-72q0 -144 -53 -190
q-18 -16 -49 -30q57 -24 79.5 -72.5t22.5 -148.5v-71q0 -63 16 -82t68 -19h15v-76h-27z" />
    <glyph glyph-name="GB1.93" horiz-adv-x="260" 
d="M92 -210v938h76v-938h-76z" />
    <glyph glyph-name="GB1.94" horiz-adv-x="334" 
d="M306 219q-28 0 -47 -11q-33 -18 -43.5 -52.5t-10.5 -125.5q-1 -99 -7 -133.5t-27 -62.5q-19 -25 -45 -34.5t-76 -9.5h-27v76h15q52 0 68 19.5t16 81.5v71q0 100 22.5 148.5t79.5 72.5q-63 30 -82 78q-20 53 -20 142v72q0 63 -16 82t-68 19h-15v76h27q50 0 76.5 -9.5
t44.5 -34.5q22 -28 27.5 -62t6.5 -134q0 -91 10.5 -126t43.5 -53q17 -10 47 -10v-80z" />
    <glyph glyph-name="GB1.95" horiz-adv-x="584" 
d="M542 329q-60 -56 -135 -56q-51 0 -119 30l-30 13q-50 22 -88 22q-33 0 -60.5 -14t-66.5 -52v100q51 59 135 59q56 0 134 -34l39 -17q35 -15 65 -15q64 0 126 67v-103z" />
    <glyph glyph-name="GB1.96" 
 />
    <glyph glyph-name="GB1.97" 
d="M212 -47q-18 29 -53.5 71t-68.5 70l56 56q82 -62 137 -128z" />
    <glyph glyph-name="GB1.98" 
d="M324 103q0 -51 -37 -89.5t-90 -38.5q-55 0 -92.5 37t-37.5 92q0 52 36.5 90t89.5 38q56 0 93.5 -37.5t37.5 -91.5zM258 105q0 26 -19.5 45t-44.5 19q-27 0 -45.5 -19.5t-18.5 -46.5q0 -26 18.5 -44.5t44.5 -18.5q28 0 46.5 18.5t18.5 46.5z" />
    <glyph glyph-name="GB1.99" 
d="M450 333v100h100v-100h-100z" />
    <glyph glyph-name="GB1.100" 
d="M347 785v73h306v-73h-306z" />
    <glyph glyph-name="GB1.101" 
d="M545 753h-94l-106 137h100l55 -83l54 83h101z" />
    <glyph glyph-name="GB1.102" 
d="M546 771v100h91v-100h-91zM363 771v100h92v-100h-92z" />
    <glyph glyph-name="GB1.103" 
d="M486 230l-24 16l160 266l63 -44zM340 228l-24 16l162 270l62 -42z" />
    <glyph glyph-name="GB1.104" 
d="M781 553q-127 -211 -254 -362q93 -68 145 -121l-61 -65q-155 133 -330 247l56 67q78 -48 120 -78q94 106 190 266h-328q-40 -67 -111 -161l-71 52q55 71 119 175q48 78 109 206l81 -34q-34 -75 -82 -157h364z" />
    <glyph glyph-name="GB1.105" 
d="M-4 363v40h1008v-40h-1008z" />
    <glyph glyph-name="GB1.106" 
d="M977 398q-138 -108 -274 -108q-23 0 -46 3q-40 5 -82 19t-91.5 35t-76.5 30q-38 13 -78 13q-113 0 -217 -101l-56 55q92 88 203 114q37 8 66 8q51 0 107 -18.5t114.5 -43.5t99.5 -33q30 -6 59 -6q112 0 220 92z" />
    <glyph glyph-name="GB1.107" 
d="M550 -121v1008h40v-1008h-40zM410 -121v1008h40v-1008h-40z" />
    <glyph glyph-name="GB1.108" 
d="M786 333v100h100v-100h-100zM450 333v100h100v-100h-100zM114 333v100h100v-100h-100z" />
    <glyph glyph-name="GB1.109" 
d="M812 800q-52 -23 -54 -94h50v-110h-102v84q0 24 2 41t9.5 40t26 41.5t46.5 31.5z" />
    <glyph glyph-name="GB1.110" 
d="M236 749q0 -24 -2 -41t-9.5 -40t-26 -41.5t-46.5 -31.5l-22 34q52 25 54 94h-50v110h102v-84z" />
    <glyph glyph-name="GB1.111" 
d="M888 800q-51 -21 -54 -98h46v-102h-94v80q0 26 1.5 41t8 39.5t24.5 42.5t46 31zM736 800q-51 -21 -54 -98h46v-102h-94v80q0 26 1.5 41t8 39.5t24.5 42.5t46 31z" />
    <glyph glyph-name="GB1.112" 
d="M366 749q0 -26 -1.5 -41t-8 -39.5t-24.5 -42.5t-46 -31l-22 34q51 21 54 98h-46v102h94v-80zM214 749q0 -26 -1.5 -41t-8 -39.5t-24.5 -42.5t-46 -31l-22 34q51 21 54 98h-46v102h94v-80z" />
    <glyph glyph-name="GB1.113" 
d="M870 -75l-237 164v587l233 168l42 -53l-210 -151v-516l210 -146z" />
    <glyph glyph-name="GB1.114" 
d="M132 -75l-38 53l210 146v516l-210 151l42 53l233 -168v-587z" />
    <glyph glyph-name="GB1.115" 
d="M662 382l258 -451h-75l-258 451l258 455h76z" />
    <glyph glyph-name="GB1.116" 
d="M155 -69h-75l258 451l-259 455h76l258 -455z" />
    <glyph glyph-name="GB1.117" 
d="M896 -69l-256 452l253 454h57l-257 -454l257 -452h-54zM763 -69l-262 452l259 454h54l-256 -454l259 -452h-54z" />
    <glyph glyph-name="GB1.118" 
d="M237 -69h-54l259 452l-256 454h54l259 -454zM104 -69h-54l257 452l-257 454h57l253 -454z" />
    <glyph glyph-name="GB1.119" 
d="M625 772v-840h-66v904h341v-64h-275z" />
    <glyph glyph-name="GB1.120" 
d="M100 -68v65h281v840h65v-905h-346z" />
    <glyph glyph-name="GB1.121" 
d="M717 676v-745h-157v904h370v-159h-213zM880 784h-271v-801h57v743h214v58z" />
    <glyph glyph-name="GB1.122" 
d="M70 -69v159h218v743h156v-902h-374zM393 782h-56v-744h-216v-57h272v801z" />
    <glyph glyph-name="GB1.123" 
d="M597 -69v904h304q-67 -93 -102.5 -212.5t-35.5 -239.5t35.5 -239.5t102.5 -212.5h-304zM811 -19q-98 157 -98 402q0 103 26 214.5t72 186.5h-165v-803h165z" />
    <glyph glyph-name="GB1.124" 
d="M100 -69q67 93 102.5 212.5t35.5 239.5t-35.5 239.5t-102.5 212.5h304v-904h-304zM355 784h-165q46 -75 72 -186.5t26 -214.5q0 -245 -98 -402h165v803z" />
    <glyph glyph-name="GB1.125" 
d="M611 -69v906h289q-13 -18 -48 -81q-90 -164 -90 -370q0 -126 35 -244t103 -211h-289z" />
    <glyph glyph-name="GB1.126" 
d="M100 -69q68 93 103 211t35 244q0 206 -90 370q-35 63 -48 81h289v-906h-289z" />
    <glyph glyph-name="GB1.127" 
d="M534 406v-259h-72v259h-291v67h291v243h72v-243h295v-67h-295zM179 42v67h641v-67h-641z" />
    <glyph glyph-name="GB1.128" 
d="M716 119l-216 215l-216 -216l-54 54l214 214l-210 209l55 49l207 -207l210 210l51 -52l-206 -207l217 -217z" />
    <glyph glyph-name="GB1.129" 
d="M448 554v95h103v-95h-103zM166 348v72h667v-72h-667zM448 118v95h103v-95h-103z" />
    <glyph glyph-name="GB1.130" 
d="M446 571v108h108v-108h-108zM446 87v108h108v-108h-108z" />
    <glyph glyph-name="GB1.131" 
d="M744 15l-249 558l-242 -558h-72l312 725l326 -725h-75z" />
    <glyph glyph-name="GB1.132" 
d="M493 15l-312 725h72l242 -558l249 558h75z" />
    <glyph glyph-name="GB1.133" 
d="M178 23v44l262 323l-261 303v46h605v-85h-457l222 -262l-227 -284h472v-85h-616z" />
    <glyph glyph-name="GB1.134" 
d="M715 655v-632h-86v632h-259v-632h-86v632h-138v84h707v-84h-138z" />
    <glyph glyph-name="GB1.135" 
d="M826 308q0 -87 -48.5 -159.5t-127.5 -114.5q-65 -35 -146 -35q-119 0 -202 68q-127 104 -127 242v425h68v-425q0 -69 52 -137.5t120 -91.5q39 -13 85 -13q108 0 181 70q77 74 77 171v425h68v-425z" />
    <glyph glyph-name="GB1.136" 
d="M758 2v425q0 97 -77 171q-73 70 -181 70q-46 0 -85 -13q-68 -23 -120 -91.5t-52 -137.5v-425h-68v425q0 138 127 242q83 68 202 68q81 0 146 -35q79 -42 127.5 -114.5t48.5 -159.5v-425h-68z" />
    <glyph glyph-name="GB1.137" 
d="M185 351q11 -87 68 -147q74 -77 171 -77h425v-68h-425q-87 0 -159.5 48.5t-114.5 127.5q-35 65 -35 146q0 119 68 202q104 127 242 127h425v-68h-425q-69 0 -137.5 -52t-91.5 -120q-8 -28 -11 -51h665v-68h-665z" />
    <glyph glyph-name="GB1.138" 
d="M798 592q0 -24 -13 -43q-20 -31 -60 -34q-48 3 -68 39q-9 16 -9 38t9 37q22 35 57 38h7q50 0 70 -44q7 -16 7 -31zM798 145q0 -23 -13 -43q-20 -31 -60 -34q-48 3 -68 39q-9 17 -9 38q0 22 9 37q22 35 57 38h7q50 0 70 -44q7 -16 7 -31zM351 591q0 -14 -5 -29
q-6 -19 -24 -32t-39 -16q-51 0 -73 40q-8 13 -8 36q0 22 9 38q23 38 66 38q5 0 17 -2q35 -14 45 -33q12 -17 12 -40zM351 144q0 -14 -5 -29q-6 -19 -24 -32t-39 -16q-51 0 -73 40q-8 13 -8 36q0 21 9 38q23 38 66 38q5 0 17 -2q35 -14 45 -33q12 -17 12 -40z" />
    <glyph glyph-name="GB1.139" 
d="M452 649l-183 -641l-173 173l45 50l93 -93l166 578h475v-67h-423z" />
    <glyph glyph-name="GB1.140" 
d="M178 33v67h286v616h71v-616h287v-67h-644z" />
    <glyph glyph-name="GB1.141" 
d="M412 -121l-37 13l344 948l38 -14zM281 -74l-38 14l345 947l37 -13z" />
    <glyph glyph-name="GB1.142" 
d="M290 163h459v-67h-619l600 600l47 -47z" />
    <glyph glyph-name="GB1.143" 
d="M830 336q0 72 -24 134q-29 75 -89 132.5t-132 75.5q-42 11 -83 11q-146 0 -246 -116q-39 -45 -62 -108.5t-25 -128.5h-52q0 75 34 160.5t91 141.5q52 50 121.5 77.5t143.5 27.5q79 0 146 -32q60 -28 111.5 -79t78.5 -111q39 -87 39 -185h-52z" />
    <glyph glyph-name="GB1.144" 
d="M877 369q0 -38 -5 -67q-15 -97 -87 -180.5t-164 -110.5q-60 -17 -118 -17q-168 0 -276 114q-103 109 -103 260q0 61 19 118q36 104 128 177t200 80q9 1 27 1q183 0 303 -148q76 -94 76 -227zM827 371q0 68 -26 126q-25 55 -71.5 101.5t-99.5 68.5q-59 25 -128 25
q-139 0 -229 -90q-99 -99 -99 -235q0 -52 14 -95q25 -79 90.5 -142.5t144.5 -78.5q35 -7 75 -7q168 0 268 133q61 81 61 194zM596 367q0 -35 -20 -60q-29 -35 -76 -35q-14 0 -28 3q-25 6 -43.5 27.5t-23.5 46.5q-2 12 -2 18q0 43 37 77q25 19 61 19q15 0 22 -2
q49 -16 62 -49q11 -20 11 -45z" />
    <glyph glyph-name="GB1.145" 
d="M670 649q-10 10 -22 20q-22 18 -35 18q-5 0 -11 -3q-13 -7 -19 -16.5t-10 -40.5l-76 -525q-5 -36 -26 -60t-50 -32q-20 -5 -36 -5q-59 0 -101 48l46 62q10 -10 22 -20q20 -18 37 -18q7 0 10 2q13 7 19 17t10 41l75 525q5 36 26 60t50 32q20 5 36 5q59 0 101 -48z" />
    <glyph glyph-name="GB1.146" 
d="M670 649q-10 10 -22 20q-19 17 -37 17q-17 0 -28 -17q-8 -13 -12 -42l-15 -101q42 -14 70 -52t30 -80v-10q0 -47 -24 -86.5t-65 -58.5q-32 -14 -54 -16l-18 -121q-5 -36 -25 -60t-49 -32q-20 -5 -36 -5q-59 0 -101 48l46 62q10 -10 22 -20q20 -17 39 -17q16 0 27 17
q8 13 12 42l14 95q-86 34 -100 121q-2 18 -2 27q0 89 78 134q27 15 66 18l19 130q5 36 25 60t49 32q20 5 36 5q59 0 101 -48zM597 383v6q-3 50 -50 78l-25 -182q14 4 20 7q25 12 40 37t15 54zM478 474q-16 -4 -27 -10q-49 -28 -49 -85q0 -11 1 -16q8 -45 49 -70z" />
    <glyph glyph-name="GB1.147" 
d="M163 476v62h674v-62h-674zM163 339v62h674v-62h-674zM163 196v62h674v-62h-674z" />
    <glyph glyph-name="GB1.148" 
d="M813 472q-79 77 -169 77q-20 0 -45 -5q-28 -6 -111.5 -42.5t-135.5 -36.5q-24 0 -50 6q-84 22 -156 95l43 46q79 -84 166 -84q29 0 60 11q20 7 59 25t70.5 29t62.5 15q12 2 35 2q106 0 211 -89zM163 339v62h674v-62h-674zM163 196v62h674v-62h-674z" />
    <glyph glyph-name="GB1.149" 
d="M949 466q-137 -96 -261 -96q-22 0 -46 3q-41 4 -82 16.5t-91.5 32t-76.5 27.5q-42 13 -87 13q-114 0 -208 -83l-46 52q80 67 193 91q32 7 65 7q67 0 176.5 -39.5t145.5 -46.5q25 -5 58 -5q112 0 221 83zM949 312q-123 -86 -252 -86q-27 0 -55 3q-41 4 -82 16.5t-91.5 32
t-76.5 27.5q-34 11 -74 11q-112 0 -221 -95l-46 52q102 86 193 105q32 7 65 7q67 0 176.5 -39.5t145.5 -46.5q42 -7 69 -7q112 0 210 75z" />
    <glyph glyph-name="GB1.150" 
d="M925 290q-108 92 -220 92q-29 0 -59 -6q-41 -8 -99.5 -33t-114.5 -43.5t-107 -18.5q-29 0 -66 8q-111 26 -203 114l56 55q104 -101 217 -101q40 0 78 13q27 9 76.5 30t91.5 35t82 19q23 3 46 3q136 0 274 -108z" />
    <glyph glyph-name="GB1.151" 
d="M924 259q-60 -12 -117 -12q-61 0 -107 14q-40 12 -113 47.5t-88 41.5l-169 -81q-44 -21 -98 -21q-56 0 -93 24q-31 16 -49.5 47t-18.5 66v5q1 39 28 72.5t64 46.5q33 11 65 11q56 0 113 -26l158 -74q15 6 88 41.5t113 47.5q46 14 107 14q25 0 54.5 -3t46.5 -6l16 -3v-64
q-53 11 -117 11q-67 0 -109 -16q-24 -9 -66 -30t-56 -27q14 -6 56 -27t66 -30q44 -17 109 -17q28 0 57.5 2.5t44.5 5.5l15 3v-63zM425 385q-16 7 -49 23t-59 26.5t-51 17.5q-20 5 -37 5q-49 0 -80 -32q-13 -22 -13 -42q0 -11 4 -20q12 -31 46 -43q19 -5 44 -5t53 7.5t47 16
t50 24.5t45 22z" />
    <glyph glyph-name="GB1.152" 
d="M497 239l-83 -206l-63 22l74 184h-264v67h290l51 131h-341v66h362l74 178l64 -23l-63 -155h240v-66h-262l-52 -131h314v-67h-341z" />
    <glyph glyph-name="GB1.153" 
d="M588 220l-66 -187l-63 22l64 185l-396 120l490 149l60 172l64 -23l-44 -124l169 51v-69l-195 -59l-62 -175l257 -77v-69zM346 360l199 -59l46 132z" />
    <glyph glyph-name="GB1.154" 
d="M423 216l-64 -183l-63 22l48 137l-186 -56v69l212 63l58 167l-270 81v69l292 -89l64 185l64 -23l-64 -182l383 -116zM493 415l-43 -123l228 68z" />
    <glyph glyph-name="GB1.155" 
d="M127 480l739 225v-69l-520 -156l520 -155v-69zM133 137v67h733v-67h-733z" />
    <glyph glyph-name="GB1.156" 
d="M127 209v69l520 155l-520 156v69l739 -225zM127 90v67h733v-67h-733z" />
    <glyph glyph-name="GB1.157" 
d="M929 385q0 -37 -16 -63q-45 -74 -140 -74q-17 0 -33 3q-38 6 -78 22.5t-87 41t-73 35.5l-172 -81q-45 -21 -98 -21q-58 0 -93 24q-31 16 -49.5 47t-18.5 66v5q1 39 28 72.5t64 46.5q33 11 65 11q56 0 113 -26l158 -74q29 12 95.5 45t104.5 47q35 12 71 12q47 0 86 -19.5
t59 -58.5q14 -28 14 -61zM866 388q0 17 -8 26q-14 25 -32 33q-28 12 -55 12q-31 0 -64 -13t-71 -33.5t-60 -28.5q14 -6 59 -29t77 -33t67 -10q3 0 8 0.5t7 0.5q54 10 67 48q5 13 5 27zM425 385q-16 7 -49 23t-59 26.5t-51 17.5q-20 5 -37 5q-49 0 -80 -32q-13 -22 -13 -42
q0 -11 4 -20q12 -31 46 -43q19 -5 44 -5t53 7.5t47 16t50 24.5t45 22z" />
    <glyph glyph-name="GB1.158" 
d="M798 592q0 -24 -13 -43q-20 -31 -60 -34q-48 3 -68 39q-9 16 -9 38t9 37q22 35 57 38h7q50 0 70 -44q7 -16 7 -31zM351 591q0 -14 -5 -29q-6 -19 -24 -32t-39 -16q-51 0 -73 40q-8 13 -8 36q0 22 9 38q23 38 66 38q5 0 17 -2q35 -14 45 -33q12 -17 12 -40zM579 105
q0 -15 -4 -26q-13 -37 -54 -46q-12 -2 -17 -2q-38 0 -64 33q-11 20 -11 43q0 12 3 24q6 20 23 34t37 16q2 0 5.5 0.5t5.5 0.5q36 0 59 -28q17 -22 17 -49z" />
    <glyph glyph-name="GB1.159" 
d="M571 611q0 -23 -13 -43q-22 -33 -60 -33q-45 0 -66 36q-11 19 -11 41q0 19 7 30q17 39 60 44q2 0 5 0.5t4 0.5q45 0 67 -45q7 -13 7 -31zM801 124q0 -9 -3 -18q-12 -37 -43 -49q-13 -6 -31 -6q-19 0 -33 8q-41 22 -41 72q6 44 40 63q13 8 33 8q36 0 57 -25q21 -24 21 -53
zM349 126q0 -26 -12 -45q-25 -33 -64 -33q-4 0 -16 2q-19 4 -34.5 19t-20.5 34q-3 11 -3 21q0 31 21 52q24 24 55 24q6 0 16 -2q35 -7 52 -42q6 -14 6 -30z" />
    <glyph glyph-name="GB1.160" 
d="M664 495l-130 134v-324q7 0 29 -8q44 -16 72 -56t30 -88v-6q0 -45 -21.5 -82t-60.5 -60q-39 -22 -83 -22q-55 0 -97 31q-66 50 -66 130q0 9 2 27q6 43 35.5 79.5t71.5 48.5l20 6v324l-130 -134l-43 46l207 207l207 -207zM604 148q0 25 -10 45q-12 24 -39 42
q-21 14 -52 14q-33 0 -57 -15q-46 -29 -49 -86v-6q0 -30 18.5 -55t45.5 -37q19 -8 38 -8q45 0 79 32q26 31 26 74z" />
    <glyph glyph-name="GB1.161" 
d="M536 266v-290h-72v290h-246v69h246v76q-4 2 -13.5 6t-13.5 5q-36 14 -63 47.5t-35 70.5q-3 16 -3 32q0 76 66 130q38 32 98 32q41 0 72 -16q49 -25 74 -76q15 -32 15 -69q0 -59 -31 -97q-39 -50 -94 -64v-77h246v-69h-246zM602 569q0 38 -21 67q-30 40 -85 40h-4
q-26 0 -49.5 -16t-35.5 -41q-11 -22 -11 -48q0 -34 16 -56q32 -47 87 -47q67 0 95 60q8 17 8 41z" />
    <glyph glyph-name="GB1.162" 
d="M379 669q0 -15 -4 -27q-7 -24 -26.5 -44.5t-43.5 -27.5q-13 -4 -30 -4q-49 0 -84 38q-24 27 -24 67q0 13 3 27q7 30 33 52t57 25q2 0 6 0.5t6 0.5q51 0 83 -40q24 -29 24 -67zM325 671q0 17 -9 29q-18 22 -47 22h-4q-15 -1 -27.5 -11t-16.5 -24q-2 -10 -2 -15
q0 -22 16 -38q15 -15 39 -15q13 0 22 4q22 8 27 32q2 10 2 16z" />
    <glyph glyph-name="GB1.163" 
d="M211 548l-32 19l140 263l68 -44z" />
    <glyph glyph-name="GB1.164" 
d="M284 523l-29 19l142 265l69 -45zM132 571l-32 19l140 263l68 -44z" />
    <glyph glyph-name="GB1.165" 
d="M379 669q0 -15 -4 -27q-7 -24 -26.5 -44.5t-43.5 -27.5q-13 -4 -30 -4q-49 0 -84 38q-24 27 -24 67q0 13 3 27q7 30 33 52t57 25q2 0 6 0.5t6 0.5q51 0 83 -40q24 -29 24 -67zM834 247q-32 -160 -147 -208q-43 -18 -95 -18q-84 0 -138 44q-111 88 -111 257q0 69 22 137
q20 60 64.5 109.5t101.5 67.5q31 10 66 10q103 0 167 -77q32 -39 49 -98l-79 -30q-9 39 -32 71.5t-59 46.5q-22 8 -41 8q-61 0 -107 -55q-55 -66 -55 -193v-26q4 -121 87 -169q29 -17 69 -17q19 0 34 4q53 15 81.5 60.5t36.5 104.5zM325 671q0 17 -9 29q-18 22 -47 22h-4
q-15 -1 -27.5 -11t-16.5 -24q-2 -10 -2 -15q0 -22 16 -38q15 -15 39 -15q13 0 22 4q22 8 27 32q2 10 2 16z" />
    <glyph glyph-name="GB1.166" 
d="M729 234q0 -85 -55 -149t-153 -68v-89h-52v88q-18 2 -28.5 4t-34 8.5t-40 15t-37.5 25t-34.5 37.5t-24.5 53t-14 71l88 16q20 -146 125 -156v280q-48 9 -106 39q-92 48 -92 162q0 65 32 112t78 67q38 16 88 21v42h52v-42q168 -16 191 -177l-91 -13q-5 34 -17 58t-30 35.5
t-27.5 15t-25.5 7.5v-254q1 0 3 -0.5t5.5 -1.5t4.5 -1q29 -7 46.5 -12.5t49 -21.5t50.5 -36t34 -55.5t15 -80.5zM469 698q-55 -9 -82.5 -43.5t-27.5 -76.5q0 -25 6 -44.5t32 -42.5t72 -37v244zM639 228q0 58 -29.5 84.5t-88.5 45.5v-268q44 6 81 40.5t37 97.5z" />
    <glyph glyph-name="GB1.167" 
d="M796 23l-77 77q-55 -45 -109 -60q-52 -15 -107 -15q-127 0 -221 74l-76 -76l-52 54l75 74q-76 95 -76 217q0 55 18 109q21 60 62 110l-78 78l48 48l79 -78q88 73 190 79q8 1 25 1q127 0 223 -79l78 77l49 -49l-78 -78q1 -2 3.5 -4.5l3.5 -3.5q70 -86 70 -208
q0 -27 -5 -62q-13 -82 -71 -156l78 -77zM783 374q0 59 -22 106q-21 48 -61.5 88.5t-87.5 59.5q-51 22 -111 22q-119 0 -199 -78q-86 -86 -86 -203q0 -40 12 -82q21 -68 78.5 -123t125.5 -69q33 -6 64 -6q146 0 233 116q54 73 54 169z" />
    <glyph glyph-name="GB1.168" 
d="M723 305q-10 -56 -36 -96.5t-60 -60t-64 -28t-59 -8.5q-24 0 -50 6l-57 -193l-55 16l56 194q-58 28 -92.5 91t-34.5 155q0 70 19 123t45 81t60.5 45t58.5 21.5t46 4.5q18 0 49 -4l56 189l53 -16l-54 -189q31 -14 53 -33t33.5 -43t15.5 -36.5t8 -32.5l-86 -13
q-11 54 -46 83l-109 -374q18 -4 30 -4q48 0 86 33.5t47 98.5zM530 584q-7 1 -19 1q-47 0 -79 -20t-46.5 -54t-19.5 -63t-5 -62q0 -48 11 -94q14 -56 49 -81z" />
    <glyph glyph-name="GB1.169" 
d="M764 48q-74 -30 -119 -30q-34 0 -68 10l-73 22q-42 12 -74 12q-77 0 -148 -46l-34 85q14 8 29 20t36 34.5t34 58.5t13 78q0 29 -8 61h-95v72h75q-25 86 -25 129q0 98 66 151t156 53q64 0 117.5 -29.5t78.5 -85.5q13 -28 20 -70l-88 -13q-7 60 -43.5 93t-86.5 33
q-56 0 -91 -36.5t-35 -83.5q0 -59 28 -141h153v-72h-138q10 -24 10 -43q0 -49 -27 -99t-65 -87q43 10 74 10q42 0 92 -12q75 -20 113 -20q37 0 94 27z" />
    <glyph glyph-name="GB1.170" 
d="M934 184q0 -91 -32 -139.5t-91 -48.5t-90 49t-31 140q0 89 31.5 139.5t89.5 50.5q59 0 91 -49t32 -142zM326 559q0 -91 -32 -139.5t-91 -48.5t-90 49t-31 140q0 89 31.5 139.5t89.5 50.5q59 0 91 -49t32 -142zM235 -2h-65l320 753h64zM643 184q0 -91 -32 -139.5
t-91 -48.5t-90 49t-31 140q0 89 31.5 139.5t89.5 50.5q59 0 91 -49t32 -142zM869 184q0 131 -58 131q-56 0 -56 -130q0 -129 56 -129q58 0 58 128zM261 559q0 131 -58 131q-56 0 -56 -130q0 -129 56 -129q58 0 58 128zM578 184q0 131 -58 131q-56 0 -56 -130q0 -129 56 -129
q58 0 58 128z" />
    <glyph glyph-name="GB1.171" 
d="M736 351q0 -33 -10.5 -58t-30.5 -41t-34.5 -24t-36.5 -17q78 -61 78 -137q0 -69 -54 -114.5t-140 -45.5q-85 0 -143.5 43t-69.5 133l88 12q5 -22 10 -35.5t18 -35t37.5 -32.5t59.5 -11q54 0 80 27.5t26 57.5q0 36 -42 69q-57 44 -141 96q-39 24 -61 39t-50.5 41
t-41.5 55.5t-13 64.5q0 45 28 84t82 55q-65 58 -65 121q0 57 46 105.5t134 48.5q142 0 187 -103q12 -29 17 -66l-91 -10q-3 17 -5.5 26.5t-10 27t-17.5 27.5t-28.5 18t-43.5 8q-44 0 -72 -23.5t-28 -54.5q0 -37 43 -71q45 -35 124 -83q47 -28 70.5 -44t51 -41t38.5 -51.5
t11 -60.5zM652 334q0 36 -33.5 67.5t-101.5 73.5q-71 44 -99 68q-74 -41 -74 -95q0 -37 29 -65.5t95 -67.5q69 -40 112 -72q72 36 72 91z" />
    <glyph glyph-name="GB1.172" 
d="M875 23v82h82v-82h-82zM861 286q0 -139 -49 -204.5t-123 -65.5t-122.5 65.5t-48.5 204.5t48.5 205.5t122.5 66.5t123 -66.5t49 -205.5zM384 23l-218 556v-556h-74v716h79l219 -557v557h75v-716h-81zM791 286q0 102 -30 151t-72 49t-72 -49t-30 -151t30 -150t72 -48t72 48
t30 150z" />
    <glyph glyph-name="GB1.173" 
d="M683 294l113 -342l-294 209l-298 -210l114 341l-289 207h357l117 337l110 -336h358zM571 444l-69 209l-73 -211h-224l180 -129l-71 -211l187 129l182 -131l-66 217l178 125z" />
    <glyph glyph-name="GB1.174" 
d="M685 297l113 -344l-295 211l-293 -212l112 341l-293 208h362l115 334l109 -332h355z" />
    <glyph glyph-name="GB1.175" 
d="M907 383q0 -139 -77 -242q-60 -80 -146 -123.5t-185 -43.5q-47 0 -84 8q-108 21 -195.5 102t-113.5 187q-13 52 -13 108q0 185 133 306q55 50 129 77.5t152 27.5q85 0 156 -32q63 -28 118 -79t84 -111q42 -85 42 -185zM854 387q0 66 -26 130q-31 74 -96.5 131.5
t-141.5 76.5q-46 11 -88 11q-157 0 -264 -116q-92 -100 -92 -245q0 -70 24 -126q35 -85 109.5 -145t164.5 -72q36 -4 53 -4q165 0 269 121q88 104 88 238z" />
    <glyph glyph-name="GB1.176" 
d="M908 382q0 -108 -44 -184q-59 -103 -156 -162.5t-212 -59.5q-13 0 -37 2q-118 10 -221 92q-70 56 -108 135.5t-38 169.5q0 3 0.5 11t0.5 12q7 138 92 243q58 73 140.5 112t175.5 39q54 0 105 -13q84 -20 158 -81.5t109 -141.5q35 -78 35 -174z" />
    <glyph glyph-name="GB1.177" 
d="M876 364q0 -66 -21 -125q-36 -102 -128 -172t-199 -76q-4 0 -11.5 -0.5t-11.5 -0.5q-106 0 -195.5 50.5t-141.5 141.5q-45 80 -45 183q0 106 47 188q53 89 140 139.5t190 50.5q12 0 38 -2q164 -15 269 -156q69 -92 69 -221zM825 369q0 73 -26 129q-25 54 -70.5 100.5
t-98.5 66.5q-56 28 -127 28q-118 0 -203 -68q-61 -49 -94.5 -116.5t-33.5 -142.5q0 -41 10 -80q23 -91 97 -160t166 -82q34 -4 51 -4q165 0 270 138q59 79 59 191zM755 368q0 -94 -52 -161q-77 -98 -202 -98q-41 0 -81 12q-62 19 -110 70.5t-63 114.5q-7 28 -7 61
q0 113 88 192q70 64 174 64q50 0 95 -18q41 -16 77 -50t56 -74q25 -51 25 -113zM706 365q0 64 -28 108q-52 85 -150 99q-11 2 -32 2q-54 0 -101 -26.5t-76 -74.5q-28 -44 -28 -108q0 -59 25 -102q30 -51 79.5 -78.5t107.5 -27.5q59 0 110 34.5t76 89.5q17 35 17 84z" />
    <glyph glyph-name="GB1.178" 
d="M496 -68l-411 467l416 469l411 -467zM501 782l-340 -383l335 -381l340 383z" />
    <glyph glyph-name="GB1.179" 
d="M498 -68l-411 467l416 469l411 -467z" />
    <glyph glyph-name="GB1.180" 
d="M145 34v700h710v-700h-710zM795 678h-590v-588h590v588z" />
    <glyph glyph-name="GB1.181" 
d="M149 31v705h700v-705h-700z" />
    <glyph glyph-name="GB1.182" 
d="M145 12l361 786l350 -786h-711zM505 659l-267 -590h530z" />
    <glyph glyph-name="GB1.183" 
d="M145 9l353 790l357 -790h-710z" />
    <glyph glyph-name="GB1.184" 
d="M875 389q0 -5 -2 -17q-8 -35 -45 -44q-10 -2 -14 -2q-23 0 -43 17q-17 17 -17 43q0 10 3 20q11 36 55 41q33 0 54 -28q9 -12 9 -30zM561 700q0 -18 -10 -35q-17 -27 -49 -27q-6 0 -16 2q-30 6 -43 39q-3 9 -3 18q0 22 14 41q20 22 47 22q7 0 19 -4q25 -10 33 -28
q8 -11 8 -28zM551 384l325 -324l-47 -47l-326 326l-328 -328l-48 48l326 326l-330 330l49 48l331 -331l327 327l48 -48zM563 75q0 -3 -2 -13q-5 -16 -18 -29t-29 -15q-2 0 -5.5 -0.5t-5.5 -0.5q-37 0 -53 28q-9 16 -9 32q0 4 2 14q4 15 15.5 27.5t25.5 15.5q9 3 17 3
q29 0 49 -25q13 -26 13 -37zM248 385q0 -9 -4 -23q-11 -33 -49 -37h-6q-36 0 -54 30q-8 14 -8 30q0 20 11 34q21 26 51 26q5 0 15 -2q23 -7 35 -26q9 -15 9 -32z" />
    <glyph glyph-name="GB1.185" 
d="M779 285v78h-779v40h779v78l225 -98z" />
    <glyph glyph-name="GB1.186" 
d="M219 363v-78l-224 98l224 98v-78h779v-40h-779z" />
    <glyph glyph-name="GB1.187" 
d="M520 658v-779h-40v779h-78l98 225l98 -225h-78z" />
    <glyph glyph-name="GB1.188" 
d="M500 -117l-98 225h78v779h40v-779h78z" />
    <glyph glyph-name="GB1.189" 
d="M150 453v221h701v-221h-701zM150 100v221h701v-221h-701z" />
    <glyph glyph-name="GB1.190" 
d="M713 23v85h86v-85h-86zM451 23v560q-68 -65 -176 -106v85q67 31 124 79.5t83 100.5h57v-719h-88z" />
    <glyph glyph-name="GB1.191" 
d="M762 23v85h86v-85h-86zM705 543q0 -59 -36.5 -120t-138.5 -147q-34 -31 -72 -61q-13 -10 -24 -19.5l-19.5 -17.5l-15.5 -14.5t-13 -13t-9 -10.5l-7.5 -10t-5.5 -8t-5 -7.5t-4 -6.5h337v-85h-459v4q0 39 18 78.5t53 77t62 62t67 56.5q70 56 124 116q58 65 58 128
q0 54 -38.5 89.5t-96.5 35.5q-10 0 -21 -1t-34 -9t-40 -22t-31 -43.5t-14 -69.5l-90 10q5 50 19 82q22 51 65 81t77.5 37t70.5 7q112 0 167.5 -61t55.5 -138z" />
    <glyph glyph-name="GB1.192" 
d="M762 23v85h86v-85h-86zM708 246q0 -100 -72 -161.5t-169 -61.5q-102 0 -161 59t-67 142l88 12q28 -141 140 -141q62 0 104.5 43t42.5 106q0 60 -39 99.5t-101 39.5q-24 0 -62 -9l10 77q2 0 7 -0.5t8 -0.5q32 0 62.5 9.5t56.5 38t26 72.5q0 53 -35.5 82.5t-81.5 29.5
q-57 0 -89 -36t-40 -94l-88 16q10 54 34 93t56.5 58t63 27t61.5 8q90 0 149.5 -53.5t59.5 -132.5q0 -100 -98 -144q1 0 8 -2t9.5 -3l9 -3.5t10.5 -4.5l10.5 -5t11.5 -6.5l11 -8t11.5 -10.5l10.5 -12q42 -53 42 -123z" />
    <glyph glyph-name="GB1.193" 
d="M738 23v85h86v-85h-86zM614 194v-171h-88v171h-310v81l326 464h72v-464h97v-81h-97zM526 598l-224 -323h224v323z" />
    <glyph glyph-name="GB1.194" 
d="M762 23v85h86v-85h-86zM717 278q-1 -103 -66 -179t-178 -76q-37 0 -72.5 10t-70 31t-58.5 62.5t-29 96.5l92 7q7 -45 25 -74.5t42 -41.5t39.5 -15.5t31.5 -3.5q69 0 109.5 51.5t40.5 123.5q0 77 -43.5 119.5t-108.5 42.5q-86 0 -130 -69l-83 10l70 368h355v-85h-285
l-39 -191q65 45 136 45q86 0 154.5 -61.5t67.5 -170.5z" />
    <glyph glyph-name="GB1.195" 
d="M762 23v85h86v-85h-86zM709 268q0 -98 -59 -171.5t-165 -73.5q-73 0 -128.5 36.5t-81.5 91.5q-38 79 -38 219q0 28 1 51t6.5 65t14.5 74.5t28.5 70.5t45.5 63.5t67.5 42.5t92.5 17q46 0 86.5 -15t75 -57t42.5 -106l-88 -8q-25 114 -121 114q-52 0 -91 -37.5t-58 -103.5
q-15 -54 -15 -137q62 95 174 95q88 0 149.5 -64t61.5 -167zM619 262q0 69 -37.5 114.5t-101.5 45.5q-56 0 -99 -41t-43 -114q0 -70 40.5 -121t104.5 -51q63 0 99.5 50t36.5 117z" />
    <glyph glyph-name="GB1.196" 
d="M733 661q-32 -34 -69.5 -87.5t-83 -136t-79 -192.5t-41.5 -222h-90q2 135 69.5 313.5t180.5 307.5h-350v85h463v-68zM702 23v85h86v-85h-86z" />
    <glyph glyph-name="GB1.197" 
d="M762 23v85h86v-85h-86zM711 239q0 -91 -65 -153.5t-170 -62.5q-106 0 -171 62.5t-65 156.5q0 96 66 149q29 23 70 31q-15 6 -23.5 10t-26.5 16t-28.5 26.5t-19.5 39.5t-9 55q0 78 55.5 131.5t149.5 53.5q95 0 151.5 -55.5t56.5 -131.5q0 -107 -105 -143q134 -45 134 -185
zM592 567q0 49 -33.5 82t-83.5 33q-51 0 -83.5 -33t-32.5 -77q0 -55 35 -85t82 -30q49 0 82.5 31t33.5 79zM621 239q0 65 -43 105.5t-104 40.5q-66 0 -105 -43t-39 -101q0 -61 40.5 -103.5t105.5 -42.5q61 0 103 39.5t42 104.5z" />
    <glyph glyph-name="GB1.198" 
d="M762 23v85h86v-85h-86zM709 408q0 -27 -0.5 -47t-5.5 -63t-14 -75.5t-28 -72.5t-45 -65.5t-68 -43.5t-95 -18q-17 0 -34.5 2t-46.5 12t-51.5 27.5t-42.5 53t-26 83.5l84 7q20 -113 119 -113q43 0 75 21.5t49 51.5t27.5 70t13 69.5t2.5 57.5v7q-24 -37 -68.5 -65.5
t-102.5 -28.5q-87 0 -149.5 63.5t-62.5 170.5q0 106 63 174t162 68q111 0 179 -86q66 -82 66 -260zM612 516q0 70 -38 118t-100 48t-103.5 -50.5t-41.5 -122.5q0 -69 41.5 -111.5t101.5 -42.5q67 0 103.5 46.5t36.5 114.5z" />
    <glyph glyph-name="GB1.199" 
d="M807 388q0 -26 -0.5 -45.5t-4.5 -60t-11 -71t-22.5 -68t-36.5 -62t-54 -41.5t-75 -17q-203 0 -203 365q0 366 203 366q42 0 75 -17t54 -41t36.5 -61.5t22.5 -68.5t11 -71.5t4.5 -60.5t0.5 -46zM831 23v85h86v-85h-86zM202 23v560q-34 -37 -76 -66t-69 -40v85
q57 29 103 77t70 103h54v-719h-82zM726 388q0 294 -123 294q-121 0 -121 -294q0 -293 121 -293q123 0 123 293z" />
    <glyph glyph-name="GB1.200" 
d="M630 23v560q-34 -37 -76 -66t-69 -40v85q57 29 103 77t70 103h54v-719h-82zM841 23v85h86v-85h-86zM260 23v560q-34 -37 -76 -66t-69 -40v85q57 29 103 77t70 103h54v-719h-82z" />
    <glyph glyph-name="GB1.201" 
d="M799 543q0 -59 -32 -120t-124 -147q-29 -29 -65 -61q-59 -52 -91 -107h296v-85h-410v4q0 39 16 78.5t47 77t55.5 62t59.5 56.5q57 50 111 116q53 66 53 128q0 54 -33.5 89.5t-85.5 35.5q-53 0 -89 -39q-35 -37 -35 -106l-83 10q5 53 17 82q15 39 40 65.5t54 38.5t52 16.5
t46 4.5q101 0 151 -61t50 -138zM841 23v85h86v-85h-86zM191 23v560q-34 -37 -76 -66t-69 -40v85q57 29 103 77t70 103h54v-719h-82z" />
    <glyph glyph-name="GB1.202" 
d="M805 246q0 -100 -62.5 -161.5t-153.5 -61.5q-96 0 -152 59t-63 142l83 12q24 -141 127 -141q56 0 94.5 43t38.5 106q0 60 -35 99.5t-92 39.5q-21 0 -57 -9l9 77q2 0 6.5 -0.5t7.5 -0.5q29 0 57 9.5t51.5 38t23.5 72.5q0 54 -31.5 83t-74.5 29q-52 0 -81 -36t-36 -94
l-83 16q9 54 31.5 93t53 58t58.5 27t57 8q86 0 138 -51t52 -132q0 -103 -90 -147q1 0 8 -2.5l10 -3.5t10 -4t11.5 -5.5l11.5 -6.5t12 -8.5t11 -11t11 -13.5q38 -51 38 -123zM841 23v85h86v-85h-86zM191 23v560q-34 -37 -76 -66t-69 -40v85q57 29 103 77t70 103h54v-719h-82z
" />
    <glyph glyph-name="GB1.203" 
d="M714 194v-171h-81v171h-285v81l300 467h66v-467h95v-81h-95zM841 23v85h86v-85h-86zM191 23v560q-34 -37 -76 -66t-69 -40v85q57 29 103 77t70 103h54v-719h-82zM633 601l-206 -326h206v326z" />
    <glyph glyph-name="GB1.204" 
d="M808 278q-1 -103 -60.5 -179t-163.5 -76q-34 0 -66.5 10t-65 31t-54 62.5t-26.5 96.5l85 7q6 -45 23 -74.5t38.5 -41.5t36 -15.5t29.5 -3.5q63 0 100.5 51.5t37.5 123.5q0 77 -40 119.5t-100 42.5q-39 0 -70.5 -19.5t-49.5 -49.5l-76 10l64 368h327v-85h-262l-36 -191
q60 45 125 45q36 0 71.5 -14.5t66 -42t48.5 -73.5t18 -102zM841 23v85h86v-85h-86zM191 23v560q-34 -37 -76 -66t-69 -40v85q57 29 103 77t70 103h54v-719h-82z" />
    <glyph glyph-name="GB1.205" 
d="M810 268q0 -98 -54.5 -171.5t-151.5 -73.5q-67 0 -118 36.5t-75 91.5q-35 80 -35 219q0 28 1 51t5.5 65t13 74.5t26.5 70.5t42 63.5t62 42.5t85 17q69 0 124 -42.5t64 -135.5l-81 -8q-25 114 -111 114q-47 0 -83 -37.5t-53 -103.5q-14 -55 -14 -137q58 95 159 95
q81 0 137.5 -64t56.5 -167zM841 23v85h86v-85h-86zM191 23v560q-34 -37 -76 -66t-69 -40v85q57 29 103 77t70 103h54v-719h-82zM725 262q0 70 -34 115t-92 45q-52 0 -90.5 -41t-38.5 -114q0 -70 36.5 -121t95.5 -51q58 0 90.5 49.5t32.5 117.5z" />
    <glyph glyph-name="GB1.206" 
d="M854 661q-29 -33 -63.5 -87.5t-76 -136.5t-72 -192t-37.5 -222h-84q2 133 66 314.5t164 306.5h-322v85h425v-68zM794 23v85h86v-85h-86zM218 23v560q-34 -37 -76 -66t-69 -40v85q57 29 103 77t70 103h54v-719h-82z" />
    <glyph glyph-name="GB1.207" 
d="M812 239q0 -92 -61 -154t-159 -62q-99 0 -160 62.5t-61 156.5q0 64 34.5 115.5t92.5 64.5q-100 41 -100 147q0 78 52 131.5t140 53.5q90 0 142.5 -55.5t52.5 -131.5q0 -107 -98 -143q125 -45 125 -185zM841 23v85h86v-85h-86zM191 23v560q-34 -37 -76 -66t-69 -40v85
q57 29 103 77t70 103h54v-719h-82zM701 567q0 49 -31.5 82t-78.5 33q-48 0 -78.5 -33t-30.5 -77q0 -55 33 -85t77 -30q46 0 77.5 31t31.5 79zM728 239q0 65 -40.5 105.5t-97.5 40.5q-62 0 -98.5 -43t-36.5 -101q0 -61 38.5 -103.5t98.5 -42.5q57 0 96.5 39.5t39.5 104.5z
" />
    <glyph glyph-name="GB1.208" 
d="M808 408q0 -28 -0.5 -47t-5 -63t-12.5 -75.5t-25.5 -72t-41.5 -66t-63 -43.5t-87 -18q-16 0 -32 2t-43 12t-47.5 27.5t-39 53t-23.5 83.5l77 7q20 -113 110 -113q39 0 68.5 21.5t45 51t24.5 70t11.5 69t2.5 57.5v8q-22 -37 -62.5 -65.5t-93.5 -28.5q-80 0 -137.5 63.5
t-57.5 170.5q0 106 58 174t149 68q101 0 164 -86q61 -83 61 -260zM841 23v85h86v-85h-86zM191 23v560q-34 -37 -76 -66t-69 -40v85q57 29 103 77t70 103h54v-719h-82zM718 516q0 69 -36 117.5t-90 48.5q-57 0 -94 -50.5t-37 -122.5q0 -69 37 -111.5t92 -42.5q61 0 94.5 46.5
t33.5 114.5z" />
    <glyph glyph-name="GB1.209" 
d="M859 388q0 -365 -186 -365q-187 0 -187 365q0 366 187 366q186 0 186 -366zM875 23v85h86v-85h-86zM443 553q0 -61 -28.5 -121t-111.5 -146q-16 -18 -59 -61q-73 -71 -81 -107h266v-85h-376v4q0 51 27.5 105t56 86.5t72.5 75.5t108 124q44 56 44 127q0 53 -28.5 89
t-75.5 36q-43 0 -76 -39q-32 -37 -32 -106l-82 10q5 54 16 82q18 51 54 81t64 37t58 7q50 0 87.5 -18.5t57.5 -48.5t29.5 -63t9.5 -69zM776 388q0 294 -104 294q-102 0 -102 -294q0 -293 103 -293t103 293z" />
    <glyph glyph-name="GB1.210" 
d="M952 398q0 -250 -145 -419l-46 31q66 75 100.5 177t34.5 211q0 199 -135 369l43 30q69 -81 108.5 -187t39.5 -212zM476 83v462q-60 -53 -159 -87v70q60 25 111.5 64.5t74.5 82.5h52v-592h-79zM193 -21q-145 169 -145 419q0 106 39.5 212t108.5 187l43 -30
q-135 -170 -135 -369q0 -109 34.5 -211t100.5 -177z" />
    <glyph glyph-name="GB1.211" 
d="M952 398q0 -250 -145 -419l-46 31q66 75 100.5 177t34.5 211q0 199 -135 369l43 30q69 -81 108.5 -187t39.5 -212zM288 88v4q0 42 32 88t64 73t80 63q63 47 108 95q51 53 51 105q0 44 -33 72t-85 28q-9 0 -18 -0.5t-30 -7t-35.5 -17.5t-27 -35t-12.5 -57l-79 9
q5 41 17 67q49 102 188 102q99 0 147.5 -50t48.5 -113q0 -48 -32 -98t-122 -121l-64 -50q-13 -9 -23.5 -18l-18 -15.5t-14.5 -13.5l-10.5 -10.5t-8.5 -9.5t-6 -7.5t-5 -7t-4 -6.5h312v-69h-420zM193 -21q-145 169 -145 419q0 106 39.5 212t108.5 187l43 -30
q-135 -170 -135 -369q0 -109 34.5 -211t100.5 -177z" />
    <glyph glyph-name="GB1.212" 
d="M952 398q0 -250 -145 -419l-46 31q66 75 100.5 177t34.5 211q0 199 -135 369l43 30q69 -81 108.5 -187t39.5 -212zM709 262q0 -83 -65 -133t-152 -50q-91 0 -145 48.5t-61 116.5l80 9q24 -115 126 -115q56 0 94 35t38 87q0 49 -35 81.5t-91 32.5q-21 0 -56 -7l9 63
q2 0 6 -0.5t7 -0.5q29 0 56.5 7.5t51 31t23.5 59.5q0 44 -32 68t-73 24q-51 0 -80 -29.5t-36 -76.5l-79 13q9 44 30.5 76t50.5 47.5t56.5 22t55.5 6.5q81 0 134.5 -44t53.5 -108q0 -82 -88 -118q1 0 9.5 -2.5t11.5 -3.5t11 -4t13 -5.5t12 -7t13.5 -10t12.5 -12.5
q38 -44 38 -101zM193 -21q-145 169 -145 419q0 106 39.5 212t108.5 187l43 -30q-135 -170 -135 -369q0 -109 34.5 -211t100.5 -177z" />
    <glyph glyph-name="GB1.213" 
d="M952 398q0 -250 -145 -419l-46 31q66 75 100.5 177t34.5 211q0 199 -135 369l43 30q69 -81 108.5 -187t39.5 -212zM620 220v-141h-79v141h-300v66l314 392h65v-392h87v-66h-87zM193 -21q-145 169 -145 419q0 106 39.5 212t108.5 187l43 -30q-135 -170 -135 -369
q0 -109 34.5 -211t100.5 -177zM541 559l-217 -273h217v273z" />
    <glyph glyph-name="GB1.214" 
d="M952 398q0 -250 -145 -419l-46 31q66 75 100.5 177t34.5 211q0 199 -135 369l43 30q69 -81 108.5 -187t39.5 -212zM711 288q-1 -85 -59 -147t-160 -62q-33 0 -65 8t-63.5 25.5t-52.5 51t-26 79.5l83 5q6 -37 22.5 -61t38 -33.5t35.5 -12.5t28 -3q61 0 98 42t37 101
q0 64 -39 98.5t-98 34.5q-77 0 -117 -57l-75 9l63 301h320v-69h-257l-35 -157q59 37 122 37q77 0 139 -50t61 -140zM193 -21q-145 169 -145 419q0 106 39.5 212t108.5 187l43 -30q-135 -170 -135 -369q0 -109 34.5 -211t100.5 -177z" />
    <glyph glyph-name="GB1.215" 
d="M952 398q0 -250 -145 -419l-46 31q66 75 100.5 177t34.5 211q0 199 -135 369l43 30q69 -81 108.5 -187t39.5 -212zM709 281q0 -80 -53 -140.5t-148 -60.5q-66 0 -115.5 29.5t-73.5 75.5q-34 63 -34 179q0 159 61 239q59 76 169 76q67 0 120 -34.5t64 -111.5l-80 -6
q-21 93 -109 93q-47 0 -82 -30.5t-52 -84.5q-13 -41 -13 -113q56 78 156 78q79 0 134.5 -52t55.5 -137zM193 -21q-145 169 -145 419q0 106 39.5 212t108.5 187l43 -30q-135 -170 -135 -369q0 -109 34.5 -211t100.5 -177zM628 276q0 57 -34 94t-91 37q-50 0 -88.5 -34
t-38.5 -93q0 -58 36.5 -99.5t93.5 -41.5q56 0 89 41t33 96z" />
    <glyph glyph-name="GB1.216" 
d="M952 398q0 -250 -145 -419l-46 31q66 75 100.5 177t34.5 211q0 199 -135 369l43 30q69 -81 108.5 -187t39.5 -212zM709 605q-29 -28 -62.5 -72t-75 -111.5t-71.5 -157.5t-37 -182h-81q2 111 62.5 257t162.5 252h-315v69h417v-55zM193 -21q-145 169 -145 419
q0 106 39.5 212t108.5 187l43 -30q-135 -170 -135 -369q0 -109 34.5 -211t100.5 -177z" />
    <glyph glyph-name="GB1.217" 
d="M952 398q0 -250 -145 -419l-46 31q66 75 100.5 177t34.5 211q0 199 -135 369l43 30q69 -81 108.5 -187t39.5 -212zM712 256q0 -75 -58.5 -126t-153.5 -51t-153.5 51t-58.5 128q0 80 59 123q26 19 63 25q-17 6 -28 11.5t-29.5 19t-28.5 36.5t-10 54q0 64 50.5 107.5
t134.5 43.5q86 0 136.5 -45t50.5 -108q0 -28 -10 -50t-27 -35.5t-30.5 -20.5t-27.5 -11q56 -17 88.5 -55t32.5 -97zM193 -21q-145 169 -145 419q0 106 39.5 212t108.5 187l43 -30q-135 -170 -135 -369q0 -109 34.5 -211t100.5 -177zM605 525q0 40 -30.5 67t-74.5 27
q-46 0 -75.5 -27t-29.5 -63q0 -46 31.5 -70t73.5 -24q44 0 74.5 25.5t30.5 64.5zM631 256q0 54 -38.5 87t-93.5 33q-59 0 -94.5 -35t-35.5 -83q0 -51 36.5 -85.5t94.5 -34.5q55 0 93 32.5t38 85.5z" />
    <glyph glyph-name="GB1.218" 
d="M952 398q0 -250 -145 -419l-46 31q66 75 100.5 177t34.5 211q0 199 -135 369l43 30q69 -81 108.5 -187t39.5 -212zM709 395q0 -159 -61 -239q-59 -76 -169 -76q-67 0 -120 34.5t-64 111.5l80 6q21 -93 109 -93q47 0 82 30.5t52 84.5q13 41 13 113q-56 -78 -156 -78
q-79 0 -134.5 52t-55.5 137q0 80 53 140.5t148 60.5q66 0 115.5 -29.5t73.5 -75.5q34 -63 34 -179zM193 -21q-145 169 -145 419q0 106 39.5 212t108.5 187l43 -30q-135 -170 -135 -369q0 -109 34.5 -211t100.5 -177zM618 479q0 58 -36.5 99.5t-93.5 41.5q-56 0 -89 -41
t-33 -96q0 -57 34 -94t91 -37q50 0 88.5 34t38.5 93z" />
    <glyph glyph-name="GB1.219" 
d="M952 398q0 -250 -145 -419l-46 31q66 75 100.5 177t34.5 211q0 199 -135 369l43 30q69 -81 108.5 -187t39.5 -212zM774 378q0 -106 -30 -192q-38 -107 -147 -107q-105 0 -149 110q-27 68 -27 187q0 129 31 201q43 101 145 101t145 -101q32 -75 32 -199zM279 83v459
q-19 -22 -52.5 -48.5t-60.5 -38.5v70q34 19 76.5 64t59.5 83h50v-589h-73zM193 -21q-145 169 -145 419q0 106 39.5 212t108.5 187l43 -30q-135 -170 -135 -369q0 -109 34.5 -211t100.5 -177zM700 378q0 114 -23 171q-26 65 -81 65q-54 0 -79 -65q-22 -60 -22 -171
q0 -124 27 -182q25 -53 75 -53t74 53q29 62 29 182z" />
    <glyph glyph-name="GB1.220" 
d="M952 398q0 -250 -145 -419l-46 31q66 75 100.5 177t34.5 211q0 199 -135 369l43 30q69 -81 108.5 -187t39.5 -212zM633 83v459q-19 -22 -52.5 -48.5t-60.5 -38.5v70q34 19 76.5 64t59.5 83h52v-589h-75zM304 83v459q-19 -22 -52.5 -48.5t-60.5 -38.5v70q34 19 76.5 64
t59.5 83h52v-589h-75zM193 -21q-145 169 -145 419q0 106 39.5 212t108.5 187l43 -30q-135 -170 -135 -369q0 -109 34.5 -211t100.5 -177z" />
    <glyph glyph-name="GB1.221" 
d="M952 398q0 -250 -145 -419l-46 31q66 75 100.5 177t34.5 211q0 199 -135 369l43 30q69 -81 108.5 -187t39.5 -212zM787 516q0 -51 -26 -100t-105 -118l-58 -51q-58 -47 -78 -87h258v-70h-361v4q0 42 27.5 87.5t55.5 73t70 63.5q61 51 98 95q40 48 40 99q0 45 -27.5 74
t-73.5 29q-56 0 -86 -50q-17 -30 -17 -64l-79 8q5 40 16 67q13 32 35 54t47.5 31.5t46 13.5t40.5 4q89 0 133 -50t44 -113zM279 83v459q-19 -22 -52.5 -48.5t-60.5 -38.5v70q34 19 76.5 64t59.5 83h50v-589h-73zM193 -21q-145 169 -145 419q0 106 39.5 212t108.5 187l43 -30
q-135 -170 -135 -369q0 -109 34.5 -211t100.5 -177z" />
    <glyph glyph-name="GB1.222" 
d="M952 398q0 -250 -145 -419l-46 31q66 75 100.5 177t34.5 211q0 199 -135 369l43 30q69 -81 108.5 -187t39.5 -212zM795 262q0 -82 -59 -132t-141 -50q-84 0 -132.5 49t-56.5 115l76 10q24 -110 113 -110q51 0 84.5 32.5t33.5 83.5q0 50 -30 80.5t-82 30.5q-18 0 -51 -7
l8 65h11q43 0 80 23t37 75q0 43 -26.5 64.5t-65.5 21.5q-89 0 -103 -101l-77 13q9 45 29 76.5t46.5 47t51.5 22t51 6.5q75 0 124 -43t49 -109q0 -83 -81 -119q46 -9 75 -44q36 -43 36 -100zM279 83v459q-19 -22 -52.5 -48.5t-60.5 -38.5v70q34 19 76.5 64t59.5 83h50v-589
h-73zM193 -21q-145 169 -145 419q0 106 39.5 212t108.5 187l43 -30q-135 -170 -135 -369q0 -109 34.5 -211t100.5 -177z" />
    <glyph glyph-name="GB1.223" 
d="M952 398q0 -250 -145 -419l-46 31q66 75 100.5 177t34.5 211q0 199 -135 369l43 30q69 -81 108.5 -187t39.5 -212zM730 218v-135h-75v135h-258v72l264 382h69v-382h80v-72h-80zM279 83v459q-19 -22 -52.5 -48.5t-60.5 -38.5v70q34 19 76.5 64t59.5 83h50v-589h-73z
M193 -21q-145 169 -145 419q0 106 39.5 212t108.5 187l43 -30q-135 -170 -135 -369q0 -109 34.5 -211t100.5 -177zM655 547l-181 -257h181v257z" />
    <glyph glyph-name="GB1.224" 
d="M952 398q0 -250 -145 -419l-46 31q66 75 100.5 177t34.5 211q0 199 -135 369l43 30q69 -81 108.5 -187t39.5 -212zM796 288q-1 -87 -52.5 -148t-145.5 -61q-68 0 -122.5 40t-63.5 124l81 6q5 -32 18.5 -55t31.5 -33t31 -13.5t24 -3.5q54 0 85.5 40t31.5 98q0 63 -33 95.5
t-85 32.5q-70 0 -106 -56l-67 11l57 303h288v-71h-228l-32 -157q54 37 107 37q70 0 125.5 -50t54.5 -139zM279 83v459q-19 -22 -52.5 -48.5t-60.5 -38.5v70q34 19 76.5 64t59.5 83h50v-589h-73zM193 -21q-145 169 -145 419q0 106 39.5 212t108.5 187l43 -30
q-135 -170 -135 -369q0 -109 34.5 -211t100.5 -177z" />
    <glyph glyph-name="GB1.225" 
d="M952 398q0 -250 -145 -419l-46 31q66 75 100.5 177t34.5 211q0 199 -135 369l43 30q69 -81 108.5 -187t39.5 -212zM800 280q0 -80 -48 -140t-134 -60q-59 0 -103 29t-66 75q-31 64 -31 180q0 21 1 41t5.5 53.5t12.5 61t23.5 58t36.5 51t54 34.5t74 14q58 0 104 -34.5
t58 -110.5l-75 -7q-2 12 -6.5 24t-14 28.5t-28 26.5t-42.5 10q-85 0 -116 -111q-13 -50 -13 -112q53 78 138 78q73 0 121.5 -52t48.5 -137zM279 83v459q-19 -22 -52.5 -48.5t-60.5 -38.5v70q34 19 76.5 64t59.5 83h50v-589h-73zM193 -21q-145 169 -145 419q0 106 39.5 212
t108.5 187l43 -30q-135 -170 -135 -369q0 -109 34.5 -211t100.5 -177zM724 276q0 55 -28.5 91t-80.5 36q-45 0 -79 -32.5t-34 -90.5q0 -56 31.5 -96t83.5 -40q51 0 79 39t28 93z" />
    <glyph glyph-name="GB1.226" 
d="M952 398q0 -250 -145 -419l-46 31q66 75 100.5 177t34.5 211q0 199 -135 369l43 30q69 -81 108.5 -187t39.5 -212zM795 605q-26 -26 -57 -71.5t-66 -112t-61.5 -156.5t-33.5 -182h-78q2 106 61 258t142 248h-287v73h380v-57zM279 83v459q-19 -22 -52.5 -48.5t-60.5 -38.5
v70q34 19 76.5 64t59.5 83h50v-589h-73zM193 -21q-145 169 -145 419q0 106 39.5 212t108.5 187l43 -30q-135 -170 -135 -369q0 -109 34.5 -211t100.5 -177z" />
    <glyph glyph-name="GB1.227" 
d="M952 398q0 -250 -145 -419l-46 31q66 75 100.5 177t34.5 211q0 199 -135 369l43 30q69 -81 108.5 -187t39.5 -212zM798 255q0 -75 -53 -125.5t-138 -50.5q-86 0 -138.5 51t-52.5 128q0 80 53 122q24 19 57 25q-87 31 -87 120q0 64 45.5 107.5t121.5 43.5q78 0 123.5 -45
t45.5 -108q0 -87 -86 -117q109 -36 109 -151zM279 83v459q-19 -22 -52.5 -48.5t-60.5 -38.5v70q34 19 76.5 64t59.5 83h50v-589h-73zM193 -21q-145 169 -145 419q0 106 39.5 212t108.5 187l43 -30q-135 -170 -135 -369q0 -109 34.5 -211t100.5 -177zM698 521q0 39 -26.5 66
t-64.5 27q-40 0 -65.5 -27t-25.5 -62q0 -44 27.5 -68t63.5 -24q38 0 64.5 25t26.5 63zM720 258q0 52 -33.5 84.5t-80.5 32.5q-51 0 -81.5 -34t-30.5 -81q0 -49 31.5 -83t81.5 -34q48 0 80.5 31.5t32.5 83.5z" />
    <glyph glyph-name="GB1.228" 
d="M952 398q0 -250 -145 -419l-46 31q66 75 100.5 177t34.5 211q0 199 -135 369l43 30q69 -81 108.5 -187t39.5 -212zM797 393q0 -21 -1 -41t-5.5 -53.5t-12.5 -61t-23.5 -58t-36.5 -51t-54 -34.5t-74 -14q-60 0 -106 34t-56 111l75 7q4 -17 6.5 -24.5t12 -26.5t28 -28.5
t44.5 -9.5q41 0 72 29.5t45 81.5q12 46 12 112q-53 -78 -138 -78q-73 0 -121.5 52t-48.5 137q0 80 48 140t134 60q119 0 169 -104q31 -64 31 -180zM279 83v459q-19 -22 -52.5 -48.5t-60.5 -38.5v70q34 19 76.5 64t59.5 83h50v-589h-73zM193 -21q-145 169 -145 419
q0 106 39.5 212t108.5 187l43 -30q-135 -170 -135 -369q0 -109 34.5 -211t100.5 -177zM713 477q0 57 -31.5 97.5t-83.5 40.5q-51 0 -79 -39.5t-28 -94.5q0 -56 28.5 -92t80.5 -36q45 0 79 32.5t34 91.5z" />
    <glyph glyph-name="GB1.229" 
d="M952 398q0 -250 -145 -419l-46 31q66 75 100.5 177t34.5 211q0 199 -135 369l43 30q69 -81 108.5 -187t39.5 -212zM814 378q0 -298 -148 -298t-148 298q0 299 148 299t148 -299zM495 516q0 -106 -99 -221q-4 -5 -20 -23t-25 -29l-22 -27.5t-21.5 -30t-13.5 -25.5h193v-69
h-284q0 93 121 224q39 44 71 96q28 46 28 104q0 99 -70 99q-37 0 -58 -46q-13 -28 -13 -69l-75 8q2 38 12 67q20 59 58.5 80.5t77.5 21.5q52 0 85 -26t44 -59.5t11 -74.5zM193 -21q-145 169 -145 419q0 106 39.5 212t108.5 187l43 -30q-135 -170 -135 -369q0 -109 34.5 -211
t100.5 -177zM742 378q0 238 -77 238q-75 0 -75 -238q0 -237 76 -237t76 237z" />
    <glyph glyph-name="GB1.230" 
d="M949 378q0 -119 -52 -208q-65 -110 -170 -173.5t-229 -63.5q-4 0 -13 0.5t-13 0.5q-120 7 -223.5 77t-155.5 178q-42 87 -42 192q0 165 95 280q69 83 160.5 127t194.5 44q51 0 98 -10q94 -19 174 -82.5t127 -152.5q49 -92 49 -209zM898 385q0 128 -65 220
q-83 116 -194 154q-69 23 -138 23q-161 0 -271 -101q-63 -58 -98 -136.5t-35 -162.5q0 -69 23 -131q38 -104 127 -178t197 -87q27 -3 53 -3q110 0 203.5 52.5t146.5 146.5q51 88 51 203zM476 83v462q-60 -53 -159 -87v70q60 25 111.5 64.5t74.5 82.5h52v-592h-79z" />
    <glyph glyph-name="GB1.231" 
d="M949 378q0 -119 -52 -208q-65 -110 -170 -173.5t-229 -63.5q-4 0 -13 0.5t-13 0.5q-120 7 -223.5 77t-155.5 178q-42 87 -42 192q0 165 95 280q69 83 160.5 127t194.5 44q51 0 98 -10q94 -19 174 -82.5t127 -152.5q49 -92 49 -209zM898 385q0 128 -65 220
q-83 116 -194 154q-69 23 -138 23q-161 0 -271 -101q-63 -58 -98 -136.5t-35 -162.5q0 -69 23 -131q38 -104 127 -178t197 -87q27 -3 53 -3q110 0 203.5 52.5t146.5 146.5q51 88 51 203zM288 88v4q0 42 32 88t64 73t80 63q63 47 108 95q51 53 51 105q0 44 -33 72t-85 28
q-9 0 -18 -0.5t-30 -7t-35.5 -17.5t-27 -35t-12.5 -57l-79 9q5 41 17 67q49 102 188 102q99 0 147.5 -50t48.5 -113q0 -48 -32 -98t-122 -121l-64 -50q-13 -9 -23.5 -18l-18 -15.5t-14.5 -13.5l-10.5 -10.5t-8.5 -9.5t-6 -7.5t-5 -7t-4 -6.5h312v-69h-420z" />
    <glyph glyph-name="GB1.232" 
d="M949 378q0 -119 -52 -208q-65 -110 -170 -173.5t-229 -63.5q-4 0 -13 0.5t-13 0.5q-120 7 -223.5 77t-155.5 178q-42 87 -42 192q0 165 95 280q69 83 160.5 127t194.5 44q51 0 98 -10q94 -19 174 -82.5t127 -152.5q49 -92 49 -209zM898 385q0 128 -65 220
q-83 116 -194 154q-69 23 -138 23q-161 0 -271 -101q-63 -58 -98 -136.5t-35 -162.5q0 -69 23 -131q38 -104 127 -178t197 -87q27 -3 53 -3q110 0 203.5 52.5t146.5 146.5q51 88 51 203zM709 262q0 -83 -65 -133t-152 -50q-91 0 -145 48.5t-61 116.5l80 9q24 -115 126 -115
q56 0 94 35t38 87q0 49 -35 81.5t-91 32.5q-21 0 -56 -7l9 63q2 0 6 -0.5t7 -0.5q29 0 56.5 7.5t51 31t23.5 59.5q0 44 -32 68t-73 24q-51 0 -80 -29.5t-36 -76.5l-79 13q9 44 30.5 76t50.5 47.5t56.5 22t55.5 6.5q81 0 134.5 -44t53.5 -108q0 -82 -88 -118q1 0 9.5 -2.5
t11.5 -3.5t11 -4t13 -5.5t12 -7t13.5 -10t12.5 -12.5q38 -44 38 -101z" />
    <glyph glyph-name="GB1.233" 
d="M949 378q0 -119 -52 -208q-65 -110 -170 -173.5t-229 -63.5q-4 0 -13 0.5t-13 0.5q-120 7 -223.5 77t-155.5 178q-42 87 -42 192q0 165 95 280q69 83 160.5 127t194.5 44q51 0 98 -10q94 -19 174 -82.5t127 -152.5q49 -92 49 -209zM898 385q0 128 -65 220
q-83 116 -194 154q-69 23 -138 23q-161 0 -271 -101q-63 -58 -98 -136.5t-35 -162.5q0 -69 23 -131q38 -104 127 -178t197 -87q27 -3 53 -3q110 0 203.5 52.5t146.5 146.5q51 88 51 203zM620 220v-141h-79v141h-300v66l314 392h65v-392h87v-66h-87zM541 559l-217 -273h217
v273z" />
    <glyph glyph-name="GB1.234" 
d="M949 378q0 -119 -52 -208q-65 -110 -170 -173.5t-229 -63.5q-4 0 -13 0.5t-13 0.5q-120 7 -223.5 77t-155.5 178q-42 87 -42 192q0 165 95 280q69 83 160.5 127t194.5 44q51 0 98 -10q94 -19 174 -82.5t127 -152.5q49 -92 49 -209zM898 385q0 128 -65 220
q-83 116 -194 154q-69 23 -138 23q-161 0 -271 -101q-63 -58 -98 -136.5t-35 -162.5q0 -69 23 -131q38 -104 127 -178t197 -87q27 -3 53 -3q110 0 203.5 52.5t146.5 146.5q51 88 51 203zM711 288q-1 -85 -59 -147t-160 -62q-33 0 -65 8t-63.5 25.5t-52.5 51t-26 79.5l83 5
q6 -37 22.5 -61t38 -33.5t35.5 -12.5t28 -3q61 0 98 42t37 101q0 64 -39 98.5t-98 34.5q-77 0 -117 -57l-75 9l63 301h320v-69h-257l-35 -157q59 37 122 37q77 0 139 -50t61 -140z" />
    <glyph glyph-name="GB1.235" 
d="M949 378q0 -119 -52 -208q-65 -110 -170 -173.5t-229 -63.5q-4 0 -13 0.5t-13 0.5q-120 7 -223.5 77t-155.5 178q-42 87 -42 192q0 165 95 280q69 83 160.5 127t194.5 44q51 0 98 -10q94 -19 174 -82.5t127 -152.5q49 -92 49 -209zM898 385q0 128 -65 220
q-83 116 -194 154q-69 23 -138 23q-161 0 -271 -101q-63 -58 -98 -136.5t-35 -162.5q0 -69 23 -131q38 -104 127 -178t197 -87q27 -3 53 -3q110 0 203.5 52.5t146.5 146.5q51 88 51 203zM709 281q0 -80 -53 -140.5t-148 -60.5q-66 0 -115.5 29.5t-73.5 75.5q-34 63 -34 179
q0 159 61 239q59 76 169 76q67 0 120 -34.5t64 -111.5l-80 -6q-21 93 -109 93q-47 0 -82 -30.5t-52 -84.5q-13 -41 -13 -113q56 78 156 78q79 0 134.5 -52t55.5 -137zM628 276q0 57 -34 94t-91 37q-50 0 -88.5 -34t-38.5 -93q0 -58 36.5 -99.5t93.5 -41.5q56 0 89 41t33 96z
" />
    <glyph glyph-name="GB1.236" 
d="M949 378q0 -119 -52 -208q-65 -110 -170 -173.5t-229 -63.5q-4 0 -13 0.5t-13 0.5q-120 7 -223.5 77t-155.5 178q-42 87 -42 192q0 165 95 280q69 83 160.5 127t194.5 44q51 0 98 -10q94 -19 174 -82.5t127 -152.5q49 -92 49 -209zM898 385q0 128 -65 220
q-83 116 -194 154q-69 23 -138 23q-161 0 -271 -101q-63 -58 -98 -136.5t-35 -162.5q0 -69 23 -131q38 -104 127 -178t197 -87q27 -3 53 -3q110 0 203.5 52.5t146.5 146.5q51 88 51 203zM709 605q-29 -28 -62.5 -72t-75 -111.5t-71.5 -157.5t-37 -182h-81q2 111 62.5 257
t162.5 252h-315v69h417v-55z" />
    <glyph glyph-name="GB1.237" 
d="M949 378q0 -119 -52 -208q-65 -110 -170 -173.5t-229 -63.5q-4 0 -13 0.5t-13 0.5q-120 7 -223.5 77t-155.5 178q-42 87 -42 192q0 165 95 280q69 83 160.5 127t194.5 44q51 0 98 -10q94 -19 174 -82.5t127 -152.5q49 -92 49 -209zM898 385q0 128 -65 220
q-83 116 -194 154q-69 23 -138 23q-161 0 -271 -101q-63 -58 -98 -136.5t-35 -162.5q0 -69 23 -131q38 -104 127 -178t197 -87q27 -3 53 -3q110 0 203.5 52.5t146.5 146.5q51 88 51 203zM712 256q0 -75 -58.5 -126t-153.5 -51t-153.5 51t-58.5 128q0 80 59 123q26 19 63 25
q-17 6 -28 11.5t-29.5 19t-28.5 36.5t-10 54q0 64 50.5 107.5t134.5 43.5q86 0 136.5 -45t50.5 -108q0 -28 -10 -50t-27 -35.5t-30.5 -20.5t-27.5 -11q56 -17 88.5 -55t32.5 -97zM605 525q0 40 -30.5 67t-74.5 27q-46 0 -75.5 -27t-29.5 -63q0 -46 31.5 -70t73.5 -24
q44 0 74.5 25.5t30.5 64.5zM631 256q0 54 -38.5 87t-93.5 33q-59 0 -94.5 -35t-35.5 -83q0 -51 36.5 -85.5t94.5 -34.5q55 0 93 32.5t38 85.5z" />
    <glyph glyph-name="GB1.238" 
d="M949 378q0 -119 -52 -208q-65 -110 -170 -173.5t-229 -63.5q-4 0 -13 0.5t-13 0.5q-120 7 -223.5 77t-155.5 178q-42 87 -42 192q0 165 95 280q69 83 160.5 127t194.5 44q51 0 98 -10q94 -19 174 -82.5t127 -152.5q49 -92 49 -209zM898 385q0 128 -65 220
q-83 116 -194 154q-69 23 -138 23q-161 0 -271 -101q-63 -58 -98 -136.5t-35 -162.5q0 -69 23 -131q38 -104 127 -178t197 -87q27 -3 53 -3q110 0 203.5 52.5t146.5 146.5q51 88 51 203zM709 395q0 -159 -61 -239q-59 -76 -169 -76q-67 0 -120 34.5t-64 111.5l80 6
q21 -93 109 -93q47 0 82 30.5t52 84.5q13 41 13 113q-56 -78 -156 -78q-79 0 -134.5 52t-55.5 137q0 80 53 140.5t148 60.5q66 0 115.5 -29.5t73.5 -75.5q34 -63 34 -179zM618 479q0 58 -36.5 99.5t-93.5 41.5q-56 0 -89 -41t-33 -96q0 -57 34 -94t91 -37q50 0 88.5 34
t38.5 93z" />
    <glyph glyph-name="GB1.239" 
d="M949 378q0 -119 -52 -208q-65 -110 -170 -173.5t-229 -63.5q-4 0 -13 0.5t-13 0.5q-120 7 -223.5 77t-155.5 178q-42 87 -42 192q0 165 95 280q69 83 160.5 127t194.5 44q51 0 98 -10q94 -19 174 -82.5t127 -152.5q49 -92 49 -209zM898 385q0 128 -65 220
q-83 116 -194 154q-69 23 -138 23q-161 0 -271 -101q-63 -58 -98 -136.5t-35 -162.5q0 -69 23 -131q38 -104 127 -178t197 -87q27 -3 53 -3q110 0 203.5 52.5t146.5 146.5q51 88 51 203zM774 378q0 -106 -30 -192q-38 -107 -147 -107q-105 0 -149 110q-27 68 -27 187
q0 129 31 201q43 101 145 101t145 -101q32 -75 32 -199zM279 83v459q-19 -22 -52.5 -48.5t-60.5 -38.5v70q34 19 76.5 64t59.5 83h50v-589h-73zM700 378q0 114 -23 171q-26 65 -81 65q-54 0 -79 -65q-22 -60 -22 -171q0 -124 27 -182q25 -53 75 -53t74 53q29 62 29 182z" />
    <glyph glyph-name="GB1.240" 
d="M952 398q0 -250 -145 -419l-46 31q66 75 100.5 177t34.5 211q0 199 -135 369l43 30q69 -81 108.5 -187t39.5 -212zM206 363v78h588v-78h-588zM193 -21q-145 169 -145 419q0 106 39.5 212t108.5 187l43 -30q-135 -170 -135 -369q0 -109 34.5 -211t100.5 -177z" />
    <glyph glyph-name="GB1.241" 
d="M952 398q0 -250 -145 -419l-46 31q66 75 100.5 177t34.5 211q0 199 -135 369l43 30q69 -81 108.5 -187t39.5 -212zM240 573v76h520v-76h-520zM190 142v76h620v-76h-620zM193 -21q-145 169 -145 419q0 106 39.5 212t108.5 187l43 -30q-135 -170 -135 -369
q0 -109 34.5 -211t100.5 -177z" />
    <glyph glyph-name="GB1.242" 
d="M952 398q0 -250 -145 -419l-46 31q66 75 100.5 177t34.5 211q0 199 -135 369l43 30q69 -81 108.5 -187t39.5 -212zM233 569v75h534v-75h-534zM276 343v75h448v-75h-448zM191 99v76h618v-76h-618zM193 -21q-145 169 -145 419q0 106 39.5 212t108.5 187l43 -30
q-135 -170 -135 -369q0 -109 34.5 -211t100.5 -177z" />
    <glyph glyph-name="GB1.243" 
d="M952 398q0 -250 -145 -419l-46 31q66 75 100.5 177t34.5 211q0 199 -135 369l43 30q69 -81 108.5 -187t39.5 -212zM712 61v63h-424v-63h-77v619h579v-619h-78zM193 -21q-145 169 -145 419q0 106 39.5 212t108.5 187l43 -30q-135 -170 -135 -369q0 -109 34.5 -211
t100.5 -177zM712 606h-100v-221q0 -15 12 -15h88v236zM712 296h-106q-33 0 -49.5 21t-16.5 47v242h-80v-93q0 -100 -33 -162.5t-109 -104.5l-30 41v-90h424v99zM387 606h-99v-293q54 31 76.5 65.5t22.5 100.5v127z" />
    <glyph glyph-name="GB1.244" 
d="M952 398q0 -250 -145 -419l-46 31q66 75 100.5 177t34.5 211q0 199 -135 369l43 30q69 -81 108.5 -187t39.5 -212zM183 96v75h182l30 227h-134v74h142l20 125h-209v75h571v-75h-284l-19 -125h249l-28 -301h114v-75h-634zM193 -21q-145 169 -145 419q0 106 39.5 212
t108.5 187l43 -30q-135 -170 -135 -369q0 -109 34.5 -211t100.5 -177zM473 398l-29 -227h180l23 227h-174z" />
    <glyph glyph-name="GB1.245" 
d="M952 398q0 -250 -145 -419l-46 31q66 75 100.5 177t34.5 211q0 199 -135 369l43 30q69 -81 108.5 -187t39.5 -212zM509 548q-11 34 -48.5 81.5t-71.5 71.5l65 41q32 -21 70 -67t54 -89zM205 467v74h590v-74h-590zM757 83q-38 79 -99 164.5t-118 139.5l55 46
q58 -45 126 -135t104 -171zM454 389q-23 -72 -88.5 -170t-133.5 -140l-57 58q65 44 128 131.5t81 156.5zM193 -21q-145 169 -145 419q0 106 39.5 212t108.5 187l43 -30q-135 -170 -135 -369q0 -109 34.5 -211t100.5 -177z" />
    <glyph glyph-name="GB1.246" 
d="M952 398q0 -250 -145 -419l-46 31q66 75 100.5 177t34.5 211q0 199 -135 369l43 30q69 -81 108.5 -187t39.5 -212zM457 421v-203q0 -48 45 -48h287v-74h-293q-58 0 -87.5 25t-29.5 93v194l-199 -39l-10 71l209 43v239h78v-225l325 64l13 -74zM193 -21q-145 169 -145 419
q0 106 39.5 212t108.5 187l43 -30q-135 -170 -135 -369q0 -109 34.5 -211t100.5 -177z" />
    <glyph glyph-name="GB1.247" 
d="M952 398q0 -250 -145 -419l-46 31q66 75 100.5 177t34.5 211q0 199 -135 369l43 30q69 -81 108.5 -187t39.5 -212zM775 60q-207 194 -207 560h-111v74h190v-77q0 -340 184 -491zM419 599q0 -72 -2 -118.5t-12.5 -109.5t-29 -110t-54 -99t-86.5 -96l-60 59q55 47 89 97
t50 110.5t21 115t5 138.5v108h79v-95zM193 -21q-145 169 -145 419q0 106 39.5 212t108.5 187l43 -30q-135 -170 -135 -369q0 -109 34.5 -211t100.5 -177z" />
    <glyph glyph-name="GB1.248" 
d="M952 398q0 -250 -145 -419l-46 31q66 75 100.5 177t34.5 211q0 199 -135 369l43 30q69 -81 108.5 -187t39.5 -212zM844 257l-6 -33.5l-6 -33.5q-22 -101 -73 -101h-72q-46 0 -67.5 19.5t-21.5 61.5v7l13 327h-130q-10 -144 -30 -207q-45 -144 -198 -218q-14 -7 -29 -13
l-41 71q43 15 77 36.5t56 42t38.5 51.5t25 53t14 61t7.5 59.5t4 63.5h-173v74h173v143h80v-143h203l-18 -395q0 -19 25 -19h40q11 0 17 13q8 21 21 104zM193 -21q-145 169 -145 419q0 106 39.5 212t108.5 187l43 -30q-135 -170 -135 -369q0 -109 34.5 -211t100.5 -177z" />
    <glyph glyph-name="GB1.249" 
d="M952 398q0 -250 -145 -419l-46 31q66 75 100.5 177t34.5 211q0 199 -135 369l43 30q69 -81 108.5 -187t39.5 -212zM540 409v-358h-80v358h-262v75h262v243h80v-243h262v-75h-262zM193 -21q-145 169 -145 419q0 106 39.5 212t108.5 187l43 -30q-135 -170 -135 -369
q0 -109 34.5 -211t100.5 -177z" />
    <glyph glyph-name="GB1.250" 
d="M457 23v716h87v-716h-87z" />
    <glyph glyph-name="GB1.251" 
d="M606 23v716h86v-716h-86zM309 23v716h86v-716h-86z" />
    <glyph glyph-name="GB1.252" 
d="M717 23v716h85v-716h-85zM458 23v716h85v-716h-85zM199 23v716h85v-716h-85z" />
    <glyph glyph-name="GB1.253" 
d="M649 23h-90l-177 716h93l130 -543l128 543h93zM215 23v716h86v-716h-86z" />
    <glyph glyph-name="GB1.254" 
d="M555 23h-109l-198 716h97l156 -590l155 590h97z" />
    <glyph glyph-name="GB1.255" 
d="M705 23v716h86v-716h-86zM440 23h-90l-177 716h93l130 -543l128 543h93z" />
    <glyph glyph-name="GB1.256" 
d="M737 23v716h85v-716h-85zM556 23v716h85v-716h-85zM368 23h-92l-150 716h91l98 -492q7 -43 8 -50l6 50l98 492h91z" />
    <glyph glyph-name="GB1.257" 
d="M796 23v716h83v-716h-83zM635 23v716h83v-716h-83zM474 23v716h83v-716h-83zM320 23h-100l-133 716h86l88 -473q2 -7 9 -72q4 47 9 72l88 473h86z" />
    <glyph glyph-name="GB1.258" 
d="M755 23l-152 283l-153 -283h-96l200 372l-185 344h97l136 -254l137 254h97l-185 -344l200 -372h-96zM207 23v716h86v-716h-86z" />
    <glyph glyph-name="GB1.259" 
d="M677 23l-177 290l-176 -290h-102l227 374l-208 342h103l156 -258l157 258h103l-209 -342l228 -374h-102z" />
    <glyph glyph-name="GB1.260" 
d="M705 23v716h86v-716h-86zM535 23l-152 283l-153 -283h-96l200 372l-185 344h97l136 -254l137 254h97l-185 -344l200 -372h-96z" />
    <glyph glyph-name="GB1.261" 
d="M737 23v716h85v-716h-85zM556 23v716h85v-716h-85zM421 23l-121 267l-120 -267h-93l167 368l-157 348h91l112 -246l112 246h91l-157 -348l167 -368h-92z" />
    <glyph glyph-name="GB1.262" 
d="M243 201h-57l-27 379v159h109v-159zM163 23v100h100v-100h-100z" />
    <glyph glyph-name="GB1.263" 
d="M608 485h-53l-23 137v117h100v-117zM447 485h-53l-25 137v117h101v-117z" />
    <glyph glyph-name="GB1.264" 
d="M772 482l-117 -6l-16 -213l115 6l-5 -66l-116 -6l-14 -189l-68 3l14 182l-159 -8l-14 -177l-68 3l13 170l-114 -6l4 65l115 6l17 214l-114 -6l4 65l115 6l14 168l67 -4l-13 -160l160 9l13 155l67 -4l-12 -147l117 6zM427 464l-16 -214l159 9l17 213z" />
    <glyph glyph-name="GB1.265" 
d="M544 331v-45h202v-68h-202v-195h-88v195h-202v68h202v45l-233 408h98l141 -252q21 -38 37 -79q15 38 39 79l141 252h98z" />
    <glyph glyph-name="GB1.266" 
d="M873 185q0 -99 -48 -144t-106 -45q-23 0 -45 7t-48 26t-42 60.5t-16 101.5q0 74 37 129t113 55q26 0 51 -8.5t49.5 -28.5t39.5 -59.5t15 -93.5zM341 -2h-73l391 753h71zM432 560q0 -99 -48 -144t-106 -45q-23 0 -45 7t-48 26t-42 60.5t-16 101.5q0 74 37 129t113 55
q26 0 51 -8.5t49.5 -28.5t39.5 -59.5t15 -93.5zM797 189q0 126 -77 126q-76 0 -76 -133q0 -125 76 -125q77 0 77 132zM356 564q0 126 -77 126q-76 0 -76 -133q0 -125 76 -125q77 0 77 132z" />
    <glyph glyph-name="GB1.267" 
d="M752 11q-41 27 -110 101q-85 -96 -205 -96q-106 0 -166.5 65.5t-60.5 143.5q0 132 170 214q-45 52 -62.5 87.5t-17.5 69.5q0 65 50.5 112.5t127.5 47.5q73 0 119.5 -45t46.5 -108q0 -103 -135 -174l129 -164q18 38 34 100l91 -19q-24 -94 -64 -155q53 -68 112 -110z
M554 601q0 39 -24.5 61t-56.5 22t-57.5 -21.5t-25.5 -57.5q0 -33 35 -74l39 -46q29 17 44.5 28.5t30.5 35t15 52.5zM426 382q-57 -35 -89 -70t-32 -81q0 -45 35 -91t98 -46q42 0 83.5 25.5t65.5 62.5z" />
    <glyph glyph-name="GB1.268" 
d="M528 485h-53l-25 137v117h101v-117z" />
    <glyph glyph-name="GB1.269" 
d="M829 -70q-83 84 -135 206.5t-52 247.5t52 247.5t135 206.5l51 -47q-168 -173 -168 -407t168 -407z" />
    <glyph glyph-name="GB1.270" 
d="M359 384q0 -125 -52 -247.5t-135 -206.5l-51 47q168 173 168 407t-168 407l51 47q83 -84 135 -206.5t52 -247.5z" />
    <glyph glyph-name="GB1.271" 
d="M558 333l-16 54l292 117l33 -107zM529 399l-57 -1l-30 314h117zM663 18l-155 270l46 32l202 -234zM437 338l-305 67l37 108l286 -124zM325 20l-92 67l210 234l48 -33z" />
    <glyph glyph-name="GB1.272" 
d="M538 349v-282h-76v282h-282v73h282v282h76v-282h282v-73h-282z" />
    <glyph glyph-name="GB1.273" 
d="M238 53q0 -15 -3.5 -32t-12 -37.5t-27 -40t-44.5 -31.5l-29 37q60 27 60 99h-54v110h110v-105z" />
    <glyph glyph-name="GB1.274" 
d="M179 346v72h642v-72h-642z" />
    <glyph glyph-name="GB1.275" 
d="M133 53v100h100v-100h-100z" />
    <glyph glyph-name="GB1.276" 
d="M13 -131l-28 28l1000 1000l28 -28z" />
    <glyph glyph-name="GB1.277" 
d="M733 388q0 -26 -0.5 -45t-5 -60t-12.5 -71.5t-25.5 -68.5t-41.5 -62t-62 -41t-86 -17q-233 0 -233 365q0 26 0.5 45t5 60.5t12.5 72t25.5 68t41.5 62t62 41.5t86 17q233 0 233 -366zM643 388q0 44 -2 79t-11 77.5t-23.5 70.5t-42 47.5t-65.5 19.5q-44 0 -73.5 -25
t-43.5 -70t-19.5 -92t-5.5 -107q0 -55 4.5 -97.5t17.5 -91.5t44 -76.5t77 -27.5t76.5 27t44 75.5t18 91.5t4.5 99z" />
    <glyph glyph-name="GB1.278" 
d="M478 23v560q-68 -65 -176 -106v85q67 31 124 79.5t83 100.5h57v-719h-88z" />
    <glyph glyph-name="GB1.279" 
d="M263 23v4q0 39 18 78.5t53 77t62 62t67 56.5q70 56 124 116q58 65 58 128q0 54 -38.5 89.5t-96.5 35.5q-10 0 -21 -1t-34 -9t-40 -22t-31 -43.5t-14 -69.5l-90 10q5 50 19 82q22 51 65 81t77.5 37t70.5 7q112 0 167.5 -61t55.5 -138q0 -59 -36.5 -120t-138.5 -147
q-34 -31 -72 -61q-13 -10 -24 -19.5l-19.5 -17.5l-15.5 -14.5t-13 -13t-9 -10.5l-7.5 -10t-5.5 -8t-5 -7.5t-4 -6.5h352v-85h-474z" />
    <glyph glyph-name="GB1.280" 
d="M728 246q0 -100 -72 -161.5t-169 -61.5q-102 0 -161 59t-67 142l88 12q28 -141 140 -141q62 0 104.5 43t42.5 106q0 60 -39 99.5t-101 39.5q-24 0 -62 -9l10 77q2 0 7 -0.5t8 -0.5q32 0 62.5 9.5t56.5 38t26 72.5q0 53 -35.5 82.5t-81.5 29.5q-57 0 -89 -36t-40 -94
l-88 16q10 54 34 93t56.5 58t63 27t61.5 8q90 0 149.5 -53.5t59.5 -132.5q0 -100 -98 -144q1 0 8 -2t9.5 -3l9 -3.5t10.5 -4.5l10.5 -5t11.5 -6.5l11 -8t11.5 -10.5l10.5 -12q42 -53 42 -123z" />
    <glyph glyph-name="GB1.281" 
d="M638 194v-171h-88v171h-310v81l326 464h72v-464h97v-81h-97zM550 598l-224 -323h224v323z" />
    <glyph glyph-name="GB1.282" 
d="M747 278q-1 -103 -66 -179t-178 -76q-37 0 -72.5 10t-70 31t-58.5 62.5t-29 96.5l92 7q7 -45 25 -74.5t42 -41.5t39.5 -15.5t31.5 -3.5q69 0 109.5 51.5t40.5 123.5q0 77 -43.5 119.5t-108.5 42.5q-86 0 -130 -69l-83 10l70 368h355v-85h-285l-39 -191q65 45 136 45
q86 0 154.5 -61.5t67.5 -170.5z" />
    <glyph glyph-name="GB1.283" 
d="M729 268q0 -98 -59 -171.5t-165 -73.5q-73 0 -128.5 36.5t-81.5 91.5q-38 79 -38 219q0 28 1 51t6.5 65t14.5 74.5t28.5 70.5t45.5 63.5t67.5 42.5t92.5 17q46 0 86.5 -15t75 -57t42.5 -106l-88 -8q-25 114 -121 114q-52 0 -91 -37.5t-58 -103.5q-15 -54 -15 -137
q62 95 174 95q88 0 149.5 -64t61.5 -167zM639 262q0 69 -37.5 114.5t-101.5 45.5q-56 0 -99 -41t-43 -114q0 -70 40.5 -121t104.5 -51q63 0 99.5 50t36.5 117z" />
    <glyph glyph-name="GB1.284" 
d="M735 661q-32 -34 -69.5 -87.5t-83 -136t-79 -192.5t-41.5 -222h-90q2 135 69.5 313.5t180.5 307.5h-350v85h463v-68z" />
    <glyph glyph-name="GB1.285" 
d="M741 239q0 -91 -65 -153.5t-170 -62.5q-106 0 -171 62.5t-65 156.5q0 96 66 149q29 23 70 31q-15 6 -23.5 10t-26.5 16t-28.5 26.5t-19.5 39.5t-9 55q0 78 55.5 131.5t149.5 53.5q95 0 151.5 -55.5t56.5 -131.5q0 -107 -105 -143q134 -45 134 -185zM622 567
q0 49 -33.5 82t-83.5 33q-51 0 -83.5 -33t-32.5 -77q0 -55 35 -85t82 -30q49 0 82.5 31t33.5 79zM651 239q0 65 -43 105.5t-104 40.5q-66 0 -105 -43t-39 -101q0 -61 40.5 -103.5t105.5 -42.5q61 0 103 39.5t42 104.5z" />
    <glyph glyph-name="GB1.286" 
d="M739 408q0 -27 -0.5 -47t-5.5 -63t-14 -75.5t-28 -72.5t-45 -65.5t-68 -43.5t-95 -18q-17 0 -34.5 2t-46.5 12t-51.5 27.5t-42.5 53t-26 83.5l84 7q20 -113 119 -113q43 0 75 21.5t49 51.5t27.5 70t13 69.5t2.5 57.5v7q-24 -37 -68.5 -65.5t-102.5 -28.5
q-87 0 -149.5 63.5t-62.5 170.5q0 106 63 174t162 68q111 0 179 -86q66 -82 66 -260zM642 516q0 70 -38 118t-100 48t-103.5 -50.5t-41.5 -122.5q0 -69 41.5 -111.5t101.5 -42.5q67 0 103.5 46.5t36.5 114.5z" />
    <glyph glyph-name="GB1.287" 
d="M130 388v108h108v-108h-108zM130 50v108h108v-108h-108z" />
    <glyph glyph-name="GB1.288" 
d="M130 388v108h108v-108h-108zM238 50q0 -100 -85 -136l-23 35q32 14 42 38.5t11 62.5h-53v108h108v-108z" />
    <glyph glyph-name="GB1.289" 
d="M119 364l725 326v-75l-558 -249l558 -242v-72z" />
    <glyph glyph-name="GB1.290" 
d="M206 478v73h587v-73h-587zM206 221v74h587v-74h-587z" />
    <glyph glyph-name="GB1.291" 
d="M150 43v74l559 246l-559 247v71l724 -317z" />
    <glyph glyph-name="GB1.292" 
d="M514 533q0 -55 -26.5 -94.5t-81.5 -88.5q-54 -48 -68 -75.5t-15 -98.5h-84q0 4 -0.5 12.5t-0.5 11.5q0 74 23.5 113.5t90.5 97.5q38 33 55 57.5t17 58.5q0 51 -40 90t-99 39q-119 0 -143 -145l-90 10q5 43 19 76q18 41 46.5 69t60.5 40.5t57 17t49 4.5q101 0 165.5 -55.5
t64.5 -139.5zM233 0v100h100v-100h-100z" />
    <glyph glyph-name="GB1.293" 
d="M963 132q-11 -20 -20.5 -34t-47.5 -53t-81 -64t-118.5 -46.5t-163.5 -21.5q-128 0 -225 35.5t-154.5 97.5t-86 139t-28.5 167q0 62 14.5 126.5t50.5 133t89 121t138.5 86t190.5 33.5q101 0 182.5 -33t132 -88t77 -122t26.5 -138q0 -139 -92 -244.5t-202 -105.5
q-30 0 -50 7.5t-28.5 22.5t-11 25t-4.5 27q-69 -81 -150 -81q-76 0 -126.5 63.5t-50.5 155.5q0 114 76.5 212.5t176.5 98.5q93 0 148 -90l17 76h87l-70 -328q-6 -28 -8 -34q-7 -31 -7 -41q0 -16 11 -24.5t23 -8.5q21 0 52 19.5t62 52.5t53 86.5t22 112.5q0 135 -101 221.5
t-249 86.5q-122 0 -216 -59t-142.5 -154t-48.5 -208q0 -83 24.5 -149t65 -107.5t96 -69t113.5 -38.5t122 -11q75 0 137.5 15.5t103 40.5t64 46.5t39.5 44.5h88zM597 440q0 67 -32.5 103.5t-80.5 36.5q-52 0 -93 -44.5t-59 -99t-18 -101.5q0 -67 32 -104t73 -37
q67 0 122.5 74.5t55.5 171.5z" />
    <glyph glyph-name="GB1.294" 
d="M728 23l-84 218h-299l-79 -218h-100l275 716h102l292 -716h-107zM540 515q-32 84 -49 149q-19 -82 -40 -137l-79 -211h243z" />
    <glyph glyph-name="GB1.295" 
d="M770 231q0 -61 -31 -112t-82 -71q-62 -25 -154 -25h-274v716h269q111 0 167 -43q70 -54 70 -140q0 -102 -99 -152q51 -15 83 -47.5t41.5 -62.5t9.5 -63zM642 544q0 27 -7 46.5t-21.5 31t-28.5 18.5t-38.5 10t-38.5 3.5t-41 0.5h-143v-215h155h4q26 0 41.5 1t41 6.5
t39.5 15.5t25.5 31t11.5 51zM672 231q0 29 -9 51.5t-26 35t-33.5 21t-41.5 11.5t-38 3.5t-34 0.5h-166v-246h178q23 0 38.5 1t43 7.5t44.5 18.5t30.5 36.5t13.5 59.5z" />
    <glyph glyph-name="GB1.296" 
d="M809 262q-16 -61 -45 -107t-60 -70.5t-69.5 -39t-66 -18.5t-55.5 -4q-162 0 -243 94q-93 107 -93 281q0 178 97.5 271.5t239.5 93.5q102 0 177.5 -52t105.5 -157l-93 -22q-9 28 -20 49t-32.5 46.5t-56.5 40t-82 14.5q-57 0 -100.5 -18.5t-69 -47.5t-41.5 -68t-21.5 -75
t-5.5 -74q0 -149 62 -221q63 -74 168 -74q93 0 143 52.5t67 129.5z" />
    <glyph glyph-name="GB1.297" 
d="M792 385q0 -192 -103 -290q-76 -72 -231 -72h-258v716h247q42 0 66 -1.5t63 -9t70.5 -26.5t58.5 -50q87 -100 87 -267zM694 387q0 154 -77 222q-24 21 -55.5 31.5t-54 12t-62.5 1.5h-150v-546h153q26 0 41.5 0.5t44.5 6t47.5 15.5t42 30.5t37.5 49.5t23.5 74.5t9.5 102.5
z" />
    <glyph glyph-name="GB1.298" 
d="M237 23v716h518v-85h-423v-219h396v-85h-396v-242h440v-85h-535z" />
    <glyph glyph-name="GB1.299" 
d="M358 654v-222h336v-85h-336v-324h-95v716h483v-85h-388z" />
    <glyph glyph-name="GB1.300" 
d="M827 135q-137 -112 -296 -112q-164 0 -265 99.5t-101 267.5q0 47 9 93.5t34 98.5t63.5 91t104 64.5t148.5 25.5q49 0 90.5 -9.5t69.5 -23t51 -35.5t35.5 -39t23.5 -41.5t14.5 -35.5t7.5 -28l-85 -24q-6 21 -11 34.5t-20.5 39t-36 41t-57 28t-82.5 12.5q-69 0 -120 -24
t-77 -56t-41.5 -76t-19 -73t-3.5 -57q0 -135 65 -208q36 -40 89 -60t109 -20q49 0 99 17t72.5 31t37.5 26v133h-211v85h303v-265z" />
    <glyph glyph-name="GB1.301" 
d="M686 23v337h-372v-337h-95v716h95v-294h372v294h95v-716h-95z" />
    <glyph glyph-name="GB1.302" 
d="M452 23v716h95v-716h-95z" />
    <glyph glyph-name="GB1.303" 
d="M665 264q0 -21 -0.5 -34.5t-4.5 -41.5t-11 -47t-21.5 -43t-35.5 -39t-54 -25.5t-74 -10.5q-163 0 -189 160q-3 17 -3 39v17l85 12q1 -21 2.5 -34.5t7.5 -36.5t16.5 -36.5t31.5 -24.5t49 -11q30 0 51 10.5t31.5 24t16 37t6.5 38t1 38.5v495h95v-487z" />
    <glyph glyph-name="GB1.304" 
d="M705 23l-254 362l-118 -114v-248h-95v716h95v-355l356 355h128l-300 -290l313 -426h-125z" />
    <glyph glyph-name="GB1.305" 
d="M315 23v716h95v-631h353v-85h-448z" />
    <glyph glyph-name="GB1.306" 
d="M750 23v599l-208 -599h-85l-205 609l-3 -609h-90v716h142l169 -507q26 -78 33 -106l40 115l171 498h126v-716h-90z" />
    <glyph glyph-name="GB1.307" 
d="M685 23l-374 562l-2 -562h-90v716h97l374 -562l2 562h90v-716h-97z" />
    <glyph glyph-name="GB1.308" 
d="M842 392q0 -170 -97 -269.5t-245 -99.5q-81 0 -147.5 30.5t-108.5 81.5t-64.5 115t-22.5 134q0 182 97.5 280.5t245.5 98.5q149 0 245.5 -101t96.5 -270zM744 392q0 144 -71 217t-172 73q-59 0 -111.5 -25t-83.5 -71q-51 -74 -51 -204q0 -124 67.5 -201t176.5 -77
q105 0 175 74t70 214z" />
    <glyph glyph-name="GB1.309" 
d="M787 532q0 -64 -29.5 -116.5t-82.5 -74.5q-68 -28 -156 -28h-183v-290h-95v716h270q45 0 71.5 -1.5t67.5 -13t68 -33.5q69 -56 69 -159zM689 529q0 60 -39 95q-16 14 -37.5 21t-39.5 8t-55 1h-182v-256h184q169 0 169 131z" />
    <glyph glyph-name="GB1.310" 
d="M816 -21q-81 31 -148 84l-5 4q-81 -44 -176 -44q-150 0 -245.5 103.5t-95.5 266.5q0 161 92.5 265.5t250.5 104.5q150 0 246 -101t96 -268q0 -178 -108 -282q61 -43 121 -67zM733 393q0 142 -70.5 215.5t-173.5 73.5q-42 0 -81.5 -13.5t-78 -43.5t-62 -90t-23.5 -142
q0 -77 21.5 -134.5t57.5 -90t77.5 -48.5t88.5 -16q54 0 96 19q-47 30 -94 41l23 69q87 -25 135 -69q84 77 84 229z" />
    <glyph glyph-name="GB1.311" 
d="M735 23l-94 148q-38 60 -64.5 94t-52 50.5t-44.5 20t-53 3.5h-109v-316h-95v716h317q93 0 143 -19q53 -20 82.5 -69t29.5 -108q0 -84 -53 -132.5t-148 -60.5q23 -12 39.5 -23.5t43 -39.5t52.5 -69l125 -195h-119zM697 543q0 32 -15.5 58t-39.5 39q-38 20 -98 20h-226
v-236h203q75 0 114 17q27 12 44.5 40.5t17.5 61.5z" />
    <glyph glyph-name="GB1.312" 
d="M779 237q0 -92 -72.5 -153t-192.5 -61q-222 0 -287 154q-15 37 -18 88l90 8q3 -41 19 -73q27 -51 82.5 -71.5t109.5 -20.5q78 0 128 32t50 90q0 25 -10 43.5t-23.5 30.5t-46 24t-58 19t-79.5 20q-39 9 -61 15.5t-60 22.5t-59 35t-37.5 51.5t-16.5 73.5q0 86 67.5 142
t183.5 56q119 0 192 -56t77 -159l-91 -7q-13 137 -174 137q-27 0 -52.5 -4.5t-52.5 -15.5t-43.5 -33.5t-16.5 -53.5q0 -46 35.5 -69t135.5 -45q37 -8 57.5 -13t55 -15.5t54 -21t44.5 -27.5t38 -36t22.5 -46.5t9.5 -60.5z" />
    <glyph glyph-name="GB1.313" 
d="M547 654v-631h-95v631h-235v85h567v-85h-237z" />
    <glyph glyph-name="GB1.314" 
d="M782 337q0 -30 -0.5 -48t-6 -55t-15.5 -61.5t-30.5 -55t-49.5 -49.5t-74.5 -32t-103.5 -13q-56 0 -101 11t-74 28.5t-50 45t-32 52.5t-17 60t-7.5 59.5t-1.5 57.5v414h95v-413q0 -31 1 -48.5t5.5 -49t16 -51t30.5 -40.5t51.5 -31t75.5 -10q51 0 87.5 12t56.5 31t31.5 51
t14.5 62t3 74v413h95v-414z" />
    <glyph glyph-name="GB1.315" 
d="M539 23h-97l-277 716h102l186 -520l5 -12q13 -30 32 -105q23 75 39 117l194 520h96z" />
    <glyph glyph-name="GB1.316" 
d="M763 23h-91l-156 564q-11 38 -16 66l-22 -85l-152 -545h-96l-191 716h97l110 -470q16 -65 27 -128q0 -1 1 -8.5t1 -9.5q11 39 20 84q3 16 13 49l136 483h115l102 -362q40 -141 55 -254q11 54 36 156l113 460h95z" />
    <glyph glyph-name="GB1.317" 
d="M710 23l-180 255q-16 22 -30 48q-3 -2 -7 -9q-11 -19 -29 -45l-179 -249h-114l277 373l-245 343h113l130 -184q46 -67 57 -88l7 10.5t9.5 13.5t13.5 20q15 23 27 38l144 190h103l-251 -337l271 -379h-117z" />
    <glyph glyph-name="GB1.318" 
d="M547 326v-303h-95v303l-276 413h115l141 -216q35 -53 73 -121q35 61 78 126l139 211h110z" />
    <glyph glyph-name="GB1.319" 
d="M217 23v89l367 457q0 1 11 14l29 34t34 37h-400v85h513v-85l-402 -495q0 -1 -5.5 -7.5l-13.5 -16t-12 -13.5l-12 -14h457v-85h-566z" />
    <glyph glyph-name="GB1.320" 
d="M559 -68v904h341v-64h-275v-776h275v-64h-341z" />
    <glyph glyph-name="GB1.321" 
d="M987 -132l-1000 1000l28 28l1000 -1000z" />
    <glyph glyph-name="GB1.322" 
d="M100 -68v64h275v776h-275v64h341v-904h-341z" />
    <glyph glyph-name="GB1.323" 
d="M554 753l-54 83l-55 -83h-100l106 137h94l110 -137h-101z" />
    <glyph glyph-name="GB1.324" 
d="M-4 -117v34h1008v-34h-1008z" />
    <glyph glyph-name="GB1.325" 
d="M533 753l-118 136h111l59 -136h-52z" />
    <glyph glyph-name="GB1.326" 
d="M644 23q-12 22 -18 64q-89 -76 -191 -76q-83 0 -130 41.5t-47 107.5q0 33 10.5 59t30.5 43t38.5 28t47 18t42 9t35.5 5q1 0 16 2t31.5 4.5t36.5 6t40 8t34 9.5v20q0 23 -4 39.5t-16 34t-38.5 26.5t-67.5 9q-39 0 -65.5 -8.5t-40 -25.5t-18.5 -29.5t-11 -35.5l-86 11
q4 17 7.5 28t13 33t25.5 36.5t40 30.5t62 24t86 8q33 0 60 -4t46.5 -10t35 -17t25 -20.5t16.5 -25.5t10.5 -27t5.5 -30.5t2 -30v-30.5v-118q0 -108 4 -145t24 -72h-92zM620 283q-48 -18 -145 -33q-22 -3 -34 -5.5t-32 -9t-30 -15t-18.5 -23.5t-8.5 -35q0 -33 25 -57.5
t79 -24.5q79 0 125 49q39 42 39 122v32z" />
    <glyph glyph-name="GB1.327" 
d="M740 290q0 -63 -15.5 -113t-39.5 -80t-54.5 -50.5t-59 -28t-55.5 -7.5q-92 0 -142 77l-2 -65h-82v716h88v-256q54 70 142 70q103 0 161.5 -73.5t58.5 -189.5zM650 283q0 89 -36 143.5t-102 54.5q-65 0 -103 -56.5t-38 -138.5q0 -96 26 -135q46 -68 112 -68
q58 0 99.5 50.5t41.5 149.5z" />
    <glyph glyph-name="GB1.328" 
d="M723 207q-8 -50 -29.5 -87t-45.5 -56t-54.5 -30.5t-49.5 -14.5t-37 -3q-119 0 -177.5 76.5t-58.5 189.5v4q0 77 22 132.5t58 84.5t75 42t81 13q119 0 175 -81q23 -32 32 -83l-85 -13q-25 105 -118 105q-39 0 -68 -15t-44 -36.5t-24.5 -51t-11.5 -51t-2 -44.5
q0 -12 0.5 -22t3 -32t7.5 -39t16 -38t26 -35.5t38.5 -24t53.5 -9.5q32 0 56.5 11.5t37 26.5t21.5 35.5t11.5 32.5t3.5 24z" />
    <glyph glyph-name="GB1.329" 
d="M618 23v66q-49 -78 -145 -78q-95 0 -159 74.5t-64 196.5q0 125 60 198t159 73q94 0 141 -71l2 257h88v-716h-82zM620 274q0 87 -34 147t-108 60q-37 0 -64.5 -17.5t-41 -41t-21.5 -55t-9.5 -49.5t-1.5 -36q0 -58 14.5 -99.5t38 -61.5t45.5 -29t44 -9q12 0 25.5 2.5t35 14
t37.5 30t28 56.5t12 88z" />
    <glyph glyph-name="GB1.330" 
d="M349 265q5 -88 50 -132.5t108 -44.5q35 0 61 11.5t41.5 32t21.5 32.5t13 31l90 -11q-21 -77 -78 -122.5t-149 -45.5q-119 0 -183.5 72.5t-64.5 194.5t64 198.5t179 76.5q20 0 41.5 -3t59 -19t65 -43t48.5 -82t21 -130v-16h-388zM647 337q-4 42 -14 66q-14 35 -50 59
t-81 24q-68 0 -106 -45t-42 -104h293z" />
    <glyph glyph-name="GB1.331" 
d="M641 665q-27 5 -52 5t-40.5 -6t-22 -19t-8 -24.5t-1.5 -30.5v-49h100v-68h-100v-450h-88v450h-78v68h78v56q0 22 1 36t8.5 39t21.5 40t42.5 27t69.5 12q37 0 82 -9z" />
    <glyph glyph-name="GB1.332" 
d="M730 93q0 -133 -32 -186q-57 -94 -202 -94q-23 0 -46 3t-53.5 13t-52.5 26.5t-37.5 47t-15.5 71.5v6l85 -13q12 -82 119 -82q30 0 53.5 6.5t39 15.5t26 26t16 31t8 39t3 40.5t0.5 43.5v4q-57 -68 -144 -68q-104 0 -164 76t-60 187q0 107 56.5 187t168.5 80q92 0 149 -74
l2 62h81v-448zM648 289q0 100 -44 146t-100 46q-61 0 -101 -50t-40 -140q0 -91 32 -137q41 -59 110 -59q68 0 110 58q33 46 33 136z" />
    <glyph glyph-name="GB1.333" 
d="M624 23v327q0 127 -109 127q-36 0 -69 -18t-47 -45q-22 -42 -22 -108v-283h-88v716h88v-257q62 71 156 71q47 0 90.5 -18t64.5 -55q24 -43 24 -129v-328h-88z" />
    <glyph glyph-name="GB1.334" 
d="M454 639v100h88v-100h-88zM454 23v518h88v-518h-88z" />
    <glyph glyph-name="GB1.335" 
d="M455 639v100h88v-100h-88zM543 -5q0 -29 -1 -47t-8 -46.5t-19.5 -45t-39 -29.5t-63.5 -13q-35 0 -69 9l17 74q24 -7 41 -7q34 0 44 24t10 83v544h88v-546z" />
    <glyph glyph-name="GB1.336" 
d="M620 23l-172 265l-62 -59v-206h-88v716h88v-408l209 210h113l-198 -192l218 -326h-108z" />
    <glyph glyph-name="GB1.337" 
d="M455 23v716h88v-716h-88z" />
    <glyph glyph-name="GB1.338" 
d="M764 23v327q0 21 -0.5 33t-5.5 32.5t-14 32t-27.5 20.5t-45.5 9q-30 0 -59.5 -14.5t-44.5 -39.5q-23 -39 -23 -99v-301h-88v337q0 23 -2.5 39.5t-10.5 36.5t-28 30.5t-50 10.5q-35 0 -65 -17t-42 -43q-22 -49 -22 -125v-269h-88v518h79v-72q55 84 157 84q115 0 147 -91
q59 91 160 91q161 0 161 -174v-356h-88z" />
    <glyph glyph-name="GB1.339" 
d="M623 23v315q0 20 -0.5 32.5t-6.5 35t-16.5 36t-32 24.5t-52.5 11q-38 0 -72 -18t-48 -47q-18 -37 -18 -106v-283h-88v518h79v-73q58 85 165 85q46 0 90 -18.5t65 -57.5q11 -20 16 -43.5t6 -40t1 -51.5v-319h-88z" />
    <glyph glyph-name="GB1.340" 
d="M743 295q0 -128 -52 -191q-72 -88 -191 -88q-121 0 -192 88q-51 64 -51 183q0 118 53 185q34 43 85 64.5t105 21.5q44 0 84.5 -14t77.5 -43t59 -82t22 -124zM653 290q0 97 -44 146.5t-109 49.5q-24 0 -47.5 -8t-49 -28t-41 -62t-15.5 -101t16 -101.5t41.5 -62t49 -27.5
t46.5 -8q44 0 76 19.5t48 51.5t22.5 64t6.5 67z" />
    <glyph glyph-name="GB1.341" 
d="M727 291q0 -130 -67 -202.5t-159 -72.5q-85 0 -134 66l-2 -253h-88v717h80v-67q56 79 150 79q106 0 163 -76t57 -191zM637 291q0 101 -40.5 149.5t-97.5 48.5q-63 0 -103 -57t-40 -148q0 -56 13 -96t34.5 -61t44 -30t47.5 -9q23 0 45 8.5t45 28.5t37.5 63t14.5 103z" />
    <glyph glyph-name="GB1.342" 
d="M617 -171v253q-53 -66 -136 -66q-92 0 -159 72.5t-67 202.5q0 115 57 191t163 76q99 0 148 -79l2 67h80v-717h-88zM626 284q0 91 -40 148t-103 57q-57 0 -97.5 -48.5t-40.5 -149.5q0 -60 14.5 -103t37.5 -63t45 -28.5t45 -8.5q25 0 47.5 9t44 30t34.5 61t13 96z" />
    <glyph glyph-name="GB1.343" 
d="M653 444q-33 19 -64 19q-32 0 -53.5 -18t-31 -47.5t-12.5 -53t-3 -49.5v-272h-88v518h80v-78q15 28 25.5 43t34 31t52.5 16q43 0 90 -28z" />
    <glyph glyph-name="GB1.344" 
d="M710 180q0 -68 -55.5 -116t-152.5 -48q-53 0 -94 13t-63 30t-37 43.5t-19.5 42.5t-8.5 38l87 13q14 -108 134 -108q62 0 90.5 25.5t28.5 57.5q0 29 -21.5 44t-65.5 26l-58 14q-31 7 -50 13t-47 18.5t-44 27.5t-28 39.5t-12 55.5q0 63 50.5 106t140.5 43q52 0 90.5 -12
t58.5 -26.5t33.5 -39t17 -36.5t6.5 -31l-86 -12q-12 85 -114 85q-16 0 -32.5 -2.5t-36 -8.5t-31.5 -20.5t-12 -35.5q0 -13 5.5 -23t12.5 -16.5t25 -13t33 -11t46 -12.5l63.5 -17t50 -16.5t42.5 -21t28 -26t19.5 -36t5.5 -46.5z" />
    <glyph glyph-name="GB1.345" 
d="M604 26q-40 -8 -66 -8q-30 0 -51.5 5t-34.5 17.5t-20.5 24t-11 34t-4 36.5t-0.5 42v298h-64v68h64v129l88 53v-182h88v-68h-88v-303q0 -27 1.5 -39t13 -22.5t34.5 -10.5q19 0 39 4z" />
    <glyph glyph-name="GB1.346" 
d="M632 23v76q-61 -88 -165 -88q-46 0 -89.5 19.5t-63.5 56.5q-24 45 -24 133v321h88v-287q0 -76 8 -103q9 -30 36.5 -47t62.5 -17q38 0 72 19t48 50q18 40 18 108v277h88v-518h-79z" />
    <glyph glyph-name="GB1.347" 
d="M541 23h-82l-197 518h93l111 -310q19 -52 32 -105l34 99l115 316h90z" />
    <glyph glyph-name="GB1.348" 
d="M693 23h-91l-82 311l-18 76q-2 8 -2 12l-105 -399h-92l-159 518h91l83 -299l6 -25q2 -9 24 -86q5 9 21 83q4 18 6 24l83 303h90l78 -300q1 -5 4.5 -19.5t4.5 -17.5l15 -62q4 10 19 58l4.5 15.5l5 16.5t2.5 10l89 299h86z" />
    <glyph glyph-name="GB1.349" 
d="M638 23l-106 161q-3 3 -11 17l-18 27l-136 -205h-107l190 270l-175 248h109l80 -121q27 -41 36 -58l40 57l87 122h105l-179 -243l193 -275h-108z" />
    <glyph glyph-name="GB1.350" 
d="M540 15q0 -1 -1.5 -5.5t-3.5 -7.5q-12 -33 -19 -50.5t-19.5 -43.5t-23.5 -39.5t-27.5 -28t-36.5 -20.5t-44 -6q-22 0 -57 10l-9 83q26 -8 50 -8q45 0 63 21.5t39 81.5q5 11 8 21l-197 519h95l108 -300q22 -59 37 -120q18 67 37 119l110 301h89z" />
    <glyph glyph-name="GB1.351" 
d="M271 23v71l330 378q-63 -3 -99 -3h-212v72h424v-57l-281 -328q-8 -11 -43 -48q-9 -9 -11 -13q46 4 111 4h240v-76h-459z" />
    <glyph glyph-name="GB1.352" 
d="M858 -60q-82 0 -114 42q-28 37 -28 121v95q0 71 -10 98.5t-41 44.5q-17 9 -50 9v72q33 0 50 9q31 17 41 44.5t10 98.5v95q0 84 28 121q32 42 114 42h24v-73h-26q-48 0 -60 -17.5t-12 -78.5v-68q0 -76 -9.5 -117.5t-35.5 -63.5q-21 -18 -46 -28q23 -9 46 -29
q26 -22 35.5 -63t9.5 -117v-68q0 -61 12 -78.5t60 -17.5h26v-73h-24z" />
    <glyph glyph-name="GB1.353" 
d="M480 -121v1008h40v-1008h-40z" />
    <glyph glyph-name="GB1.354" 
d="M384 350q-32 0 -49 -9q-31 -18 -41.5 -45t-10.5 -98v-95q0 -84 -28 -121q-31 -42 -114 -42h-23v73h25q48 0 60 17.5t12 78.5v68q0 75 10 116t36 64q23 20 46 29q-25 10 -46 28q-26 23 -36 64t-10 117v68q0 61 -12 78.5t-60 17.5h-25v73h23q83 0 114 -42q28 -37 28 -121
v-95q0 -71 10.5 -98t41.5 -45q17 -9 49 -9v-72z" />
    <glyph glyph-name="GB1.355" 
d="M-4 849v34h1008v-34h-1008z" />
    <glyph glyph-name="GB1.356" 
d="M827 276q0 -32 -10 -61q-24 -69 -87.5 -125.5t-141.5 -86.5l-48 83q71 20 127.5 63t72.5 100q4 12 4 28q0 61 -59 101q-26 17 -42 22q-54 -146 -148 -239q16 -36 24 -47l-83 -36l-10 28q-57 -35 -124 -35q-45 0 -78 18q-32 17 -52 47.5t-24 66.5q-1 8 -1 23q0 65 37 122
t98 93q47 28 87 38q-1 11 -1 36q0 36 1 52l-168 -22l-14 86l184 21q1 11 3.5 49.5t5.5 63.5l87 -9q-8 -49 -11 -95l272 32l10 -84l-286 -35q-2 -18 -2 -28q0 -6 3 -48q35 7 76 7q127 0 221 -69q77 -67 77 -160zM558 420q-34 4 -50 4q-28 0 -55 -6q4 -70 19 -155
q54 60 86 157zM398 192q-17 73 -29 204q-33 -14 -76 -50q-67 -58 -67 -113q0 -15 4 -28q5 -16 18 -28t29 -16q22 -4 31 -4q50 0 90 35z" />
    <glyph glyph-name="GB1.357" 
d="M867 241q0 -10 -2 -28q-12 -91 -87.5 -163t-172.5 -110l-52 86q3 1 23 10l25.5 11.5l23.5 11t26 13.5l23.5 14.5t24.5 17.5l21.5 19t22 23t17.5 25q17 28 17 63q0 37 -17 68q-36 66 -96 81q-61 -172 -151 -257l-16 -15q6 -21 26 -53l-89 -38l-14 36q-48 -28 -81 -35
q-20 -4 -45 -6q-6 -1 -17 -1q-91 0 -140 75q-24 37 -24 90q0 67 33 124q66 114 215 162q-1 34 -1 102l-192 -23l-11 90l204 24q1 24 3.5 67t3.5 56l96 -6q-10 -43 -14 -104l297 35l13 -91l-312 -40l3 -91q11 4 36 7q38 5 68 5q129 0 212 -65q100 -77 100 -190zM573 401
q-8 1 -25 1q-41 0 -91 -9q9 -108 18 -174q49 50 98 182zM395 148q-24 128 -28 225q-59 -20 -108.5 -67.5t-55.5 -107.5v-9q0 -45 38 -69q21 -11 47 -11q45 0 107 39z" />
    <glyph glyph-name="GB1.358" 
d="M747 213v8q0 60 -14.5 123.5t-29.5 102.5t-45 107q-22 51 -49 95l81 34q130 -254 150 -449zM583 246q-49 -137 -117 -210q-32 -33 -82 -33q-19 0 -34 4q-11 4 -21.5 11.5t-18.5 14t-17 19l-13.5 19t-12.5 22t-10.5 21l-10 22t-8.5 19.5q-62 135 -62 341q0 98 15 215
l91 -17q-22 -79 -22 -184q0 -36 4 -100q10 -143 85 -287q11 -23 26 -28q4 -2 12 -2q20 0 50 41q31 43 66 153z" />
    <glyph glyph-name="GB1.359" 
d="M780 210q-1 92 -24.5 173t-67.5 184q-34 80 -67 124l89 36q73 -148 114 -261t52 -239zM597 240l-43 -96t-45 -76t-68 -81q-26 -17 -59 -17q-24 0 -45 9q-37 15 -78 81q-113 179 -115 442v19q0 121 14 239l97 -22q-25 -93 -25 -203q0 -77 11 -157q25 -182 108 -293
q15 -19 28 -19q11 1 19.5 8t19.5 22t14 18q41 65 74 173z" />
    <glyph glyph-name="GB1.360" 
d="M653 594q-197 3 -359 44l22 91q73 -26 112 -32q102 -17 167 -17q38 0 70 4zM789 329q0 -52 -21 -94q-29 -59 -75.5 -102.5t-106.5 -69.5t-117 -40.5t-128 -23.5l-39 91q185 3 297 77q103 67 103 162q0 8 -2 24q-12 40 -49 65t-80 28q-12 1 -35 1q-140 0 -321 -103l-57 71
q84 55 193 90q97 31 182 31q157 0 227 -103q29 -42 29 -104z" />
    <glyph glyph-name="GB1.361" 
d="M661 615q-229 2 -404 54l28 90q68 -30 142.5 -40.5t176.5 -14.5h6q19 0 70 7zM810 319q0 -71 -32 -124q-60 -100 -162 -151t-235 -73q-47 -7 -62 -7h-8l-39 94q120 1 212 27t163 87q72 62 72 140q0 22 -6 44q-9 31 -33.5 58t-54.5 34q-50 12 -98 12q-128 0 -292 -81
q-29 -14 -65 -40l-57 85q229 125 434 125q31 0 62 -3q53 -5 101.5 -37.5t74.5 -81.5q25 -46 25 -108z" />
    <glyph glyph-name="GB1.362" 
d="M650 618q-203 0 -343 41l17 92q108 -45 269 -47l74 7zM853 26q-87 -14 -142 -16q-5 0 -16 -0.5t-17 -0.5q-56 0 -102 10q-26 6 -47 30t-27 51q-2 22 -2 33q0 12 1 34t1 33q0 25 -4 44q-4 11 -15.5 18.5t-25.5 7.5q-18 0 -31 -12l-97.5 -100l-129.5 -136l-70 64
q165 181 402 372q-65 -9 -328 -11l-8 94q69 -10 144 -10q77 0 164 10l156 18q13 1 44 10v-78l-192 -155h4q31 0 54 -27q6 -8 10 -18.5t4.5 -17.5l1.5 -21t1 -18q2 -36 2 -53v-10q0 -34 1 -50q14 -28 63 -28q8 0 24 0.5t24 0.5h13q69 9 121 23z" />
    <glyph glyph-name="GB1.363" 
d="M662 650h-14q-186 0 -362 39l16 98q65 -29 135.5 -38.5t167.5 -11.5h5q23 0 68 8zM881 -8q-135 -15 -189 -15q-63 0 -118 13q-29 7 -50 35.5t-25 60.5q0 9 2 52t2 69v4q0 33 -18 45q-12 4 -26 4q-34 0 -66 -24q-144 -146 -230 -245l-73 58q83 102 179 193
q157 151 262 226q-251 -13 -355 -16l-16 102q66 -5 158 -5q86 0 159 4q54 3 246 27v-71l-219 -173q42 -2 66 -30q24 -29 24 -82q0 -12 -1.5 -36t-1.5 -35v-9v-4q0 -6 -0.5 -16t-0.5 -15q0 -19 11 -28q16 -9 71 -13q9 -1 27 -1q45 0 175 21z" />
    </font>
</defs>
</svg>
