<?xml version="1.0" encoding="utf-8"?>
<!-- Generator: Adobe Illustrator 23.0.0, SVG Export Plug-In . SVG Version: 6.00 Build 0)  -->
<svg version="1.1" id="Layer_1" xmlns="http://www.w3.org/2000/svg" xmlns:xlink="http://www.w3.org/1999/xlink" x="0px" y="0px"
	 viewBox="0 0 38 38" style="enable-background:new 0 0 38 38;" xml:space="preserve">
<style type="text/css">
	.st0{fill:#404041;}
</style>
<g>
	<path class="st0" d="M1,7.8h36v18H1V7.8z M1,30.2V28h36v2.2H1z M14.6,23.5c-1.5-1.8-2.3-4-2.3-6.8c0-2.7,0.8-5,2.3-6.8H7.8
		c0,1.2-0.4,2.3-1.3,3.2c-0.9,0.9-1.9,1.3-3.2,1.3v5.6c0.9,0,1.7,0.3,2.4,1c0.7,0.7,1,1.5,1,2.4H14.6z M7.8,19
		c-1.5,0-2.2-0.7-2.2-2.2c0-1.5,0.7-2.2,2.2-2.2c1.5,0,2.2,0.8,2.2,2.2C10,18.3,9.2,19,7.8,19z M22,19.4c0.2-0.2,0.3-0.6,0.3-1.1
		c0-0.2,0-0.4-0.1-0.6c-0.1-0.3-0.2-0.5-0.3-0.6c-0.2-0.2-0.4-0.3-0.5-0.4c-0.3-0.2-0.5-0.3-0.7-0.4c0,0-0.2,0-0.5-0.1
		c0,0-0.1-0.1-0.3-0.1s-0.2,0-0.3,0V14c0,0,0.1,0.1,0.2,0.1c0.1,0,0.2,0.1,0.2,0.1c0.3,0.2,0.4,0.5,0.5,0.9H22
		c0-0.2-0.1-0.5-0.3-0.9c-0.1-0.3-0.4-0.6-0.6-0.8c-0.3-0.2-0.6-0.3-1-0.4c-0.2-0.1-0.4-0.1-0.5-0.1v-0.6h-1.3v0.6
		c-0.1,0-0.2,0-0.4,0.1c-0.5,0.1-0.8,0.2-1,0.4c-0.3,0.2-0.5,0.5-0.6,0.7c-0.2,0.4-0.3,0.7-0.3,1c0,0.2,0,0.4,0.1,0.6
		c0,0.2,0.1,0.4,0.3,0.5c0.2,0.2,0.4,0.4,0.6,0.5c0.3,0.2,0.6,0.3,0.8,0.4c0,0,0.1,0.1,0.3,0.1s0.2,0,0.3,0v2.5
		c-0.3-0.1-0.5-0.2-0.6-0.3c-0.2-0.1-0.4-0.3-0.4-0.5c-0.1-0.3-0.1-0.5-0.1-0.6h-1.4c0,0.3,0.1,0.7,0.3,1.1c0.2,0.3,0.4,0.5,0.7,0.8
		c0.4,0.3,0.7,0.4,1.1,0.5c0.3,0.1,0.5,0.1,0.6,0.1v0.6h1.3v-0.6c0.1,0,0.4,0,0.6-0.1c0.5-0.1,0.8-0.2,1-0.4
		C21.4,20,21.7,19.7,22,19.4z M17.6,14.4c0-0.1,0.2-0.2,0.4-0.3c0.2-0.1,0.3-0.1,0.4-0.1v1.8c-0.2,0-0.4-0.2-0.6-0.4
		c-0.2-0.2-0.3-0.4-0.3-0.6C17.5,14.8,17.5,14.6,17.6,14.4z M20.2,17.5c0.2,0.1,0.3,0.2,0.4,0.3c0.1,0.1,0.2,0.4,0.2,0.6
		c0,0.2,0,0.3-0.1,0.4c-0.1,0.2-0.2,0.3-0.3,0.4l-0.6,0.3l-0.1,0.1c-0.1,0-0.2,0-0.2,0v-2.2c0,0,0.1,0,0.3,0
		C20.1,17.4,20.1,17.5,20.2,17.5z M34.8,20.1v-5.6c-1.2,0-2.3-0.4-3.2-1.3c-0.9-0.9-1.3-1.9-1.3-3.2h-6.8c1.5,1.8,2.3,4,2.3,6.8
		c0,2.7-0.8,5-2.3,6.8h7.9c0-0.9,0.3-1.7,1-2.4C33,20.5,33.8,20.1,34.8,20.1z M30.2,19c-1.5,0-2.2-0.7-2.2-2.2
		c0-1.5,0.7-2.2,2.2-2.2c1.5,0,2.2,0.8,2.2,2.2C32.5,18.3,31.8,19,30.2,19z"/>
</g>
</svg>
