<svg xmlns="http://www.w3.org/2000/svg" viewBox="0 0 38 38">
  <path d="M21.94 1.294c-.073-.539-.565-.863-1.08-.781-.492.076-.825.508-.771 1.039.108 1.064.226 2.126.349 3.188.05.433.287.742.716.845a.885.885 0 0 0 .964-.346c.186-.244.161-.526.172-.807-.115-1.048-.212-2.097-.35-3.138m7.767 3.317c-.332-.18-.669-.172-.978.051-.867.627-1.74 1.246-2.59 1.896-.51.389-.589.895-.27 1.338.325.452.873.529 1.396.158.845-.601 1.676-1.223 2.511-1.836.269-.198.416-.461.416-.873a.889.889 0 0 0-.485-.734M15.708 2.568c-.202.357-.129.702.1 1.018.619.853 1.235 1.708 1.871 2.548.368.488.899.569 1.343.244.425-.312.506-.864.154-1.361-.597-.848-1.217-1.679-1.831-2.515-.195-.265-.44-.443-.792-.42-.39-.031-.662.16-.845.486m10.213-1.143c-.436-.123-.886.071-1.1.532a97.719 97.719 0 0 0-1.321 2.98.943.943 0 0 0 .489 1.241.914.914 0 0 0 1.208-.471c.468-.999.897-2.015 1.338-3.026.046-.104.06-.222.075-.28a.973.973 0 0 0-.689-.976M14.058 31.787c.378-.921.22-1.777-.485-2.458a407.29 407.29 0 0 0-5.568-5.27 2.045 2.045 0 0 0-1.835-.532c-.888.163-1.499.68-1.776 1.535-.301.922-.037 1.733.651 2.389a1037.48 1037.48 0 0 0 5.386 5.104c.424.399.932.616 1.528.594.982.005 1.734-.476 2.099-1.362m-3.161-15.613c-.359.906-.256 1.76.447 2.471.673.679 1.381 1.324 2.075 1.983 1.436 1.364 2.866 2.734 4.31 4.087 1.122 1.05 2.717.879 3.512-.355.605-.938.465-2.079-.416-2.922a1060.654 1060.654 0 0 0-6.246-5.929c-.445-.418-.965-.691-1.579-.654-.98-.002-1.769.478-2.103 1.319m-3.726 3.899c-.367.907-.188 1.86.533 2.544a839.08 839.08 0 0 0 6.454 6.07 2.221 2.221 0 0 0 3.161-.122c.828-.907.798-2.327-.096-3.176-2.13-2.022-4.271-4.032-6.411-6.044-.438-.413-.956-.641-1.568-.622-.918.002-1.743.538-2.073 1.35M18.208 37.5c-2.22-.126-4.016-1.08-5.227-3.061-.212-.348-.235-.542.215-.731 1.309-.553 1.978-1.767 1.81-3.187-.039-.335.014-.464.411-.435 1.974.144 3.53-1.514 3.273-3.486-.061-.465.187-.445.488-.425 1.701.114 2.95-1.109 3.185-2.515.169-1.01-.079-1.921-.817-2.634-2.397-2.314-4.817-4.608-7.23-6.906-1.852-1.764-3.719-3.512-5.557-5.292-.894-.866-.89-2.219-.05-3.119.81-.868 2.188-.983 3.082-.166 1.824 1.672 3.605 3.392 5.404 5.091 1.536 1.45 3.073 2.896 4.609 4.347.447.424.953.763 1.511 1.019 1.048.483 1.935.325 2.778-.452.597-.55.946-1.266 1.363-1.936.418-.673.806-1.364 1.233-2.032.864-1.353 2.463-1.726 3.794-.902 1.251.774 1.623 2.409.828 3.737a918.757 918.757 0 0 1-4.454 7.374c-.216.355-.228.632-.043.999a62.463 62.463 0 0 1 1.447 3.037c1.325 3.001.09 6.469-2.845 7.925-2.216 1.101-4.458 2.15-6.695 3.209-.77.367-1.601.502-2.513.541" fill="#404041"/>
</svg>
