<svg xmlns="http://www.w3.org/2000/svg" viewBox="0 0 38 38">
  <path d="M23.834 29.606a3.4 3.4 0 0 1-.122.059c-1.276.608-2.608.922-3.881.922-.155 0-.309-.005-.462-.013-1.543-.096-2.938-.684-4.04-1.703-1.69.966-3.775 1.466-6.198 1.485h-.008c-.237 0-.425-.09-.518-.247a.397.397 0 0 1-.001-.401c.096-.168.294-.266.545-.268 2.451-.019 5.404-1.271 7.705-3.266.249-.215.754-.183.965.061.223.258.132.761-.102.965-.357.31-.741.608-1.144.887a6.15 6.15 0 0 0 2.927 1.385c1.276.219 2.564.007 3.829-.628a.866.866 0 0 1 .281-.086c.26-.03.484.093.545.299.048.163-.01.394-.321.549m7.038-2.012c-.37.192-.799.3-1.275.32a1.12 1.12 0 0 1-.215.022c-.165 0-.297-.046-.376-.134a.277.277 0 0 1-.058-.275c.05-.151.219-.264.477-.317l.03-.005c.496-.021.89-.174 1.202-.468 1.212-1.143.878-4.14.452-6.625l-.113-.661c-.064-.39.225-.654.531-.705.294-.048.623.096.685.467l.111.656c.73 4.246.241 6.845-1.451 7.725m-7.24-19.442c.234-.004.489.002.781.018-.167.249-.427.35-.775.3a2.038 2.038 0 0 1-.73-.276c.237-.025.47-.039.724-.042m11.373 12.227c-.182-1.404-.711-3.308-1.271-5.325-.717-2.577-1.458-5.242-1.458-6.898 0-.856-.258-2.726-.511-3.396-.133-.351-.506-.883-1.005-1.261-.625-.473-1.525-.964-2.679-1.456C26.645 1.43 24.763.93 23.587.688 22.914.55 22.416.483 22.221.504c-.729.081-1.803 1.345-2.191 1.835-.74.93-1.494 2.186-1.436 2.685l.017.145c.059.533.275 1.24.585 1.701-.32.427-.433.975-.303 1.471.125.476.453.846.925 1.044.533.222 1.246-.011 2.117-.692.611.292 1.179.47 1.689.529.278.031.533.027.757-.015.659-.122.873-.443 1.025-.99l.291.011c.438.018.83.059 1.194.033.013 2.169-.66 3.558-1.323 5.036-.711 1.587-1.445 3.226-1.356 5.584-.218-.182-.315-.228-.557-.38-2.541-1.602-6.061-1.428-8.585.415-.608-1.586-2.094-2.948-3.99-3.65a6.577 6.577 0 0 0-4.311-.114h-.002c-.111.029-2.759.904-3.813 3.085a.513.513 0 1 0 .924.447c.544-1.123 1.775-1.744 2.591-2.047l.007-.001a6.132 6.132 0 0 1 6.788 1.784c1.517 1.799 1.711 4.111.517 6.185-.15.261.115.416.241.492.137.081.357.028.513-.229.998-1.633 1.312-2.777.891-4.386 2.355-1.942 5.687-2.38 8.117-.834 1.373.872 2.104 2.266 2.373 3.736.054.297.272.397.415.38.154-.018.291-.192.257-.491-.139-1.22-.554-2.3-1.234-3.21-.39-2.776.372-4.474 1.178-6.273.718-1.6 1.46-3.256 1.413-5.691.128-.034.251-.071.366-.114.155 2.706-.638 4.687-1.277 6.283-.454 1.136-.846 2.116-.846 3.114 0 .133.028.247.082.328a.245.245 0 0 0 .202.121c.137 0 .284-.14.284-.449 0-.862.42-1.775.908-2.832.806-1.752 1.81-3.931 1.518-7.089.295-.281.596-.826.735-1.334.092-.337-.017-.414-.069-.432-.131-.044-.303.12-.42.401-.375.897-.92 1.002-1.552 1.123-.099.019-.202.04-.306.063-.738.165-1.554.092-2.344.021-.53-.047-1.079-.096-1.597-.071-.203.01-.395.03-.574.063a1.708 1.708 0 0 1-.225-.289s-.056-.11-.09-.142c-.013-.012-.063-.036-.063-.036a.17.17 0 0 0-.045.001c-.099.019-.1.126-.099.168 0 .097.176.326-.036.368a1.333 1.333 0 0 1-.156-.384c-.052-.185-.074-.389-.223-.374-.123.012-.176.171-.179.224-.023.294.034.539.178.787a2.885 2.885 0 0 0-.374.248 5.47 5.47 0 0 1-.746.531c-.223-.122-.433-.432-.477-.623-.063-.28-.108-.376-.189-.419-.053-.025-.108-.023-.15.007-.096.069-.081.266-.064.379.048.317.173.596.386.887-.113.034-.209.042-.278.012-.294-.131-.489-.452-.499-.816-.007-.316.13-.583.356-.697.231-.116.454-.212.671-.304.531-.228 1.034-.442 1.627-.938.167-.14.323-.346.488-.565.22-.291.469-.62.791-.849a1.6 1.6 0 0 1 .512-.246c.203-.056.337-.147.364-.252a.14.14 0 0 0-.039-.138c-.081-.081-.257-.094-.47-.036a3.573 3.573 0 0 0-.659.246c-.046-.264.092-.749.301-1.028a.57.57 0 0 1 .073-.086c.215-.215.237-.419.166-.516-.047-.064-.15-.104-.299-.027a.76.76 0 0 0-.178.137 3.746 3.746 0 0 0-.787 1.173 2.749 2.749 0 0 0-.225.951l-.544.471c-.173-.128-.403-.211-.684-.247a2.67 2.67 0 0 0-.907.046c-.258.062-.403.171-.389.293.016.131.205.212.494.212.143 0 .462.1.683.26-.172.099-.346.191-.516.281-.209.11-.426.225-.639.353-.209-.329-.258-.564-.323-.885a8.58 8.58 0 0 0-.081-.367c-.078-.314.564-1.456 1.374-2.447.626-.766 1.178-1.22 1.482-1.22h.013c.347.013.765.063 1.242.144 1.431.244 3.064.725 4.369 1.283 1.166.5 2.248 1.235 2.756 1.869.116.147.2.283.246.406.219.58.489 2.221.489 2.977 0 1.765.667 4.597 1.312 7.335.453 1.922.88 3.737 1.053 5.08.105.81.155 2.309-.051 3.864-.166 1.255-.558 2.961-1.488 3.961-.202.217-.248.506-.289.761-.046.292-.087.544-.329.646a6.319 6.319 0 0 1-.962.322c-.736.172-1.41.239-2.178.282a5.306 5.306 0 0 1-.929-.065c-.792-.109-1.702-.623-2.269.121-.53.7-1.202 1.192-1.972 1.573-2.054 1.016-4.656.832-7.171.653-2.095-.149-4.262-.303-6.156.218-1.606.442-2.842 1.611-4.012 3.422-.081.126-.165.236-.168.482-.004.211.024.248.048.328.085.269.278.37.565.425.055.009.113.014.174.014.309 0 .696-.143.964-.562 2.158-3.374 4.369-3.258 7.716-3.082l.284.015c2.479.132 5.565.297 8.026-.899.787-.383 2.048-1.173 2.606-1.788.939.07 1.334.203 2.232.196a14.39 14.39 0 0 0 2.303-.219 6.9 6.9 0 0 0 1.284-.361c.528-.199.713-.814.879-1.276.09-.252.167-.47.276-.587.729-.784 1.255-1.951 1.562-3.471.236-1.167.295-2.329.304-3.1v-.418a14.586 14.586 0 0 0-.092-1.569" fill="#404041"/>
</svg>
