<svg xmlns="http://www.w3.org/2000/svg" viewBox="0 0 48 48">
  <path d="M12.857 16.929c-.571-.572-.857-1.25-.857-2.036s.286-1.464.857-2.036c.572-.571 1.25-.857 2.036-.857s1.464.286 2.036.857c.571.571.857 1.25.857 2.036s-.286 1.464-.857 2.036-1.25.857-2.036.857-1.464-.286-2.036-.857zM12.375 36V19.982h4.982V36h-4.982zm18.643 0v-7.821c0-1.286-.107-2.214-.321-2.786-.393-.964-1.161-1.446-2.304-1.446-1.143 0-1.946.429-2.411 1.286-.357.643-.536 1.589-.536 2.839V36h-4.929V19.982h4.768v2.196h.054c.357-.714.929-1.304 1.714-1.768.857-.571 1.857-.857 3-.857 2.321 0 3.946.732 4.875 2.196.714 1.179 1.071 3 1.071 5.464V36h-4.981z"/>
</svg>
