<?xml version="1.0" encoding="utf-8"?>
<!-- Generator: Adobe Illustrator 23.0.0, SVG Export Plug-In . SVG Version: 6.00 Build 0)  -->
<svg version="1.1" id="Layer_1" xmlns="http://www.w3.org/2000/svg" xmlns:xlink="http://www.w3.org/1999/xlink" x="0px" y="0px"
	 viewBox="0 0 38 38" style="enable-background:new 0 0 38 38;" xml:space="preserve">
<style type="text/css">
	.st0{fill:#404041;}
</style>
<g>
	<path class="st0" d="M33.7,4.3c0.9,0,1.6,0.3,2.3,1c0.7,0.6,1,1.4,1,2.3v22.9c0,0.9-0.3,1.6-1,2.3c-0.7,0.7-1.4,1-2.3,1H4.3
		c-0.9,0-1.6-0.3-2.3-1c-0.7-0.7-1-1.4-1-2.3V7.5c0-0.9,0.3-1.6,1-2.3c0.7-0.6,1.4-1,2.3-1h9.8v3.2H4.3v22.9h29.4V7.5h-9.8V4.3H33.7
		z M19,25.5L12.5,19h4.9V4.3h3.2V19h4.9L19,25.5z"/>
</g>
</svg>
