<svg xmlns="http://www.w3.org/2000/svg" viewBox="0 0 48 48">
  <path d="M38.396 16.747c.256.989.44 2.491.549 4.505L39 24l-.055 2.747c-.11 2.051-.293 3.571-.549 4.56-.183.623-.513 1.172-.989 1.648s-1.044.806-1.703.989c-.952.256-3.187.44-6.703.549l-5 .055-5-.055c-3.516-.11-5.751-.293-6.703-.549-.659-.183-1.227-.513-1.703-.989s-.806-1.026-.989-1.648c-.256-.989-.44-2.509-.549-4.56L9 24c0-.806.018-1.722.055-2.747.11-2.015.293-3.516.549-4.505.183-.659.513-1.227.989-1.703s1.044-.806 1.703-.989c.952-.256 3.187-.44 6.703-.549l5-.055 5 .055c3.516.11 5.751.293 6.703.549.659.183 1.227.513 1.703.989s.807 1.043.991 1.702zM20.923 28.505L28.78 24l-7.857-4.451v8.956z"/>
</svg>
